%TF.GenerationSoftware,KiCad,Pcbnew,9.0.2+dfsg-1*%
%TF.CreationDate,2026-04-06T15:16:27+03:00*%
%TF.ProjectId,ESP32Klone,45535033-324b-46c6-9f6e-652e6b696361,1/1*%
%TF.SameCoordinates,Original*%
%TF.FileFunction,Legend,Bot*%
%TF.FilePolarity,Positive*%
%FSLAX46Y46*%
G04 Gerber Fmt 4.6, Leading zero omitted, Abs format (unit mm)*
G04 Created by KiCad (PCBNEW 9.0.2+dfsg-1) date 2026-04-06 15:16:27*
%MOMM*%
%LPD*%
G01*
G04 APERTURE LIST*
%ADD10C,0.000000*%
G04 APERTURE END LIST*
D10*
G36*
X161688585Y-122696223D02*
G01*
X161959736Y-122705820D01*
X162231763Y-122723187D01*
X162502881Y-122748388D01*
X162771305Y-122781489D01*
X163035252Y-122822554D01*
X163292937Y-122871648D01*
X163519693Y-122923078D01*
X163749475Y-122982739D01*
X163979807Y-123049792D01*
X164208216Y-123123399D01*
X164432226Y-123202720D01*
X164649362Y-123286918D01*
X164857150Y-123375153D01*
X165053114Y-123466588D01*
X165246303Y-123564984D01*
X165438701Y-123670176D01*
X165629943Y-123781875D01*
X165819664Y-123899790D01*
X166007500Y-124023628D01*
X166193084Y-124153099D01*
X166376052Y-124287913D01*
X166556038Y-124427777D01*
X166732678Y-124572402D01*
X166905606Y-124721495D01*
X167074458Y-124874767D01*
X167238868Y-125031925D01*
X167398470Y-125192679D01*
X167552901Y-125356739D01*
X167701795Y-125523812D01*
X167844786Y-125693608D01*
X167926019Y-125795883D01*
X168008359Y-125905376D01*
X168091334Y-126021264D01*
X168174473Y-126142722D01*
X168339361Y-126399051D01*
X168499254Y-126667767D01*
X168650386Y-126942278D01*
X168788988Y-127215987D01*
X168911293Y-127482301D01*
X168965156Y-127610623D01*
X169013533Y-127734624D01*
X169095942Y-127969325D01*
X169168952Y-128207267D01*
X169232548Y-128448122D01*
X169286715Y-128691567D01*
X169331438Y-128937274D01*
X169366702Y-129184918D01*
X169392492Y-129434174D01*
X169408793Y-129684716D01*
X169415590Y-129936218D01*
X169412868Y-130188355D01*
X169400612Y-130440800D01*
X169378807Y-130693229D01*
X169347438Y-130945315D01*
X169306491Y-131196734D01*
X169255949Y-131447158D01*
X169195799Y-131696263D01*
X169144635Y-131879319D01*
X169086842Y-132062924D01*
X169022592Y-132246761D01*
X168952054Y-132430514D01*
X168875399Y-132613865D01*
X168792797Y-132796497D01*
X168704419Y-132978095D01*
X168610434Y-133158341D01*
X168511013Y-133336919D01*
X168406327Y-133513512D01*
X168296545Y-133687803D01*
X168181838Y-133859475D01*
X168062377Y-134028213D01*
X167938331Y-134193698D01*
X167809871Y-134355615D01*
X167677168Y-134513646D01*
X167568301Y-134634431D01*
X167435445Y-134773572D01*
X167286917Y-134923088D01*
X167131037Y-135074998D01*
X166976122Y-135221321D01*
X166830491Y-135354079D01*
X166702463Y-135465289D01*
X166647649Y-135510320D01*
X166600355Y-135546971D01*
X166311196Y-135754690D01*
X166018822Y-135950043D01*
X165722858Y-136133167D01*
X165422931Y-136304198D01*
X165118666Y-136463274D01*
X164809690Y-136610531D01*
X164495628Y-136746107D01*
X164176106Y-136870137D01*
X163850750Y-136982759D01*
X163519186Y-137084109D01*
X163181041Y-137174325D01*
X162835939Y-137253543D01*
X162483508Y-137321899D01*
X162123372Y-137379531D01*
X161755158Y-137426576D01*
X161378493Y-137463170D01*
X161378493Y-137463322D01*
X161189172Y-137472405D01*
X160915697Y-137477220D01*
X160228390Y-137475396D01*
X159540782Y-137460554D01*
X159266932Y-137449097D01*
X159077086Y-137435399D01*
X158779066Y-137399976D01*
X158485324Y-137357665D01*
X158196056Y-137308529D01*
X157911458Y-137252634D01*
X157631729Y-137190044D01*
X157357064Y-137120821D01*
X157087661Y-137045032D01*
X156823715Y-136962739D01*
X156565425Y-136874007D01*
X156312987Y-136778900D01*
X156066597Y-136677482D01*
X155826452Y-136569818D01*
X155592750Y-136455971D01*
X155365687Y-136336006D01*
X155145459Y-136209986D01*
X154932265Y-136077977D01*
X154783187Y-135980875D01*
X154654384Y-135894078D01*
X154540360Y-135813299D01*
X154487173Y-135773828D01*
X154435620Y-135734254D01*
X154385013Y-135694041D01*
X154334666Y-135652655D01*
X154232004Y-135564216D01*
X154122138Y-135464651D01*
X153999571Y-135349675D01*
X153909238Y-135262493D01*
X153822632Y-135175848D01*
X153739535Y-135089453D01*
X153659732Y-135003019D01*
X153583004Y-134916258D01*
X153509137Y-134828881D01*
X153437913Y-134740601D01*
X153369116Y-134651128D01*
X153302529Y-134560174D01*
X153237935Y-134467452D01*
X153175119Y-134372672D01*
X153113863Y-134275547D01*
X153053950Y-134175788D01*
X152995165Y-134073106D01*
X152937291Y-133967214D01*
X152880110Y-133857823D01*
X152834255Y-133764392D01*
X152789449Y-133665758D01*
X152745954Y-133562838D01*
X152704035Y-133456553D01*
X152663956Y-133347820D01*
X152625979Y-133237560D01*
X152590368Y-133126690D01*
X152557387Y-133016129D01*
X152527299Y-132906797D01*
X152500367Y-132799613D01*
X152476856Y-132695494D01*
X152457029Y-132595361D01*
X152441149Y-132500132D01*
X152429480Y-132410725D01*
X152422285Y-132328060D01*
X152419829Y-132253056D01*
X152419829Y-132109776D01*
X152565321Y-132386571D01*
X152678821Y-132593395D01*
X152799745Y-132796220D01*
X152927934Y-132994881D01*
X153063230Y-133189212D01*
X153205472Y-133379047D01*
X153354502Y-133564221D01*
X153510161Y-133744570D01*
X153672289Y-133919926D01*
X153840728Y-134090126D01*
X154015317Y-134255003D01*
X154195899Y-134414393D01*
X154382314Y-134568129D01*
X154574402Y-134716047D01*
X154772006Y-134857981D01*
X154974964Y-134993765D01*
X155183119Y-135123235D01*
X155390327Y-135243073D01*
X155603228Y-135357754D01*
X155821610Y-135467208D01*
X156045261Y-135571366D01*
X156273969Y-135670160D01*
X156507523Y-135763521D01*
X156745710Y-135851379D01*
X156988320Y-135933667D01*
X157235139Y-136010315D01*
X157485957Y-136081254D01*
X157740562Y-136146416D01*
X157998741Y-136205731D01*
X158260284Y-136259131D01*
X158524977Y-136306548D01*
X158792610Y-136347911D01*
X159062971Y-136383153D01*
X159264602Y-136398637D01*
X159552063Y-136409725D01*
X159896473Y-136416409D01*
X160268950Y-136418687D01*
X160640611Y-136416551D01*
X160982575Y-136409996D01*
X161265959Y-136399018D01*
X161461882Y-136383611D01*
X161922398Y-136319581D01*
X162141614Y-136283321D01*
X162354385Y-136243966D01*
X162561401Y-136201319D01*
X162763351Y-136155180D01*
X162960923Y-136105352D01*
X163154806Y-136051636D01*
X163345689Y-135993835D01*
X163534259Y-135931749D01*
X163721207Y-135865181D01*
X163907220Y-135793932D01*
X164092987Y-135717804D01*
X164279196Y-135636600D01*
X164466538Y-135550119D01*
X164655699Y-135458165D01*
X164967830Y-135293157D01*
X165269622Y-135114410D01*
X165560524Y-134922555D01*
X165839984Y-134718223D01*
X166107450Y-134502045D01*
X166362370Y-134274651D01*
X166604192Y-134036672D01*
X166832365Y-133788739D01*
X167046337Y-133531483D01*
X167245555Y-133265534D01*
X167429468Y-132991523D01*
X167597524Y-132710081D01*
X167749172Y-132421839D01*
X167883858Y-132127427D01*
X168001032Y-131827477D01*
X168100142Y-131522618D01*
X168159230Y-131305326D01*
X168209543Y-131087516D01*
X168251137Y-130869347D01*
X168284065Y-130650980D01*
X168308382Y-130432574D01*
X168324143Y-130214289D01*
X168331402Y-129996284D01*
X168330214Y-129778720D01*
X168320634Y-129561755D01*
X168302715Y-129345550D01*
X168276512Y-129130265D01*
X168242080Y-128916058D01*
X168199474Y-128703090D01*
X168148747Y-128491521D01*
X168023152Y-128073216D01*
X167865730Y-127662422D01*
X167676918Y-127260415D01*
X167457153Y-126868474D01*
X167206870Y-126487876D01*
X166926505Y-126119898D01*
X166616495Y-125765819D01*
X166277276Y-125426916D01*
X165909285Y-125104466D01*
X165668538Y-124913362D01*
X165424045Y-124732284D01*
X165175572Y-124561134D01*
X164922882Y-124399808D01*
X164665739Y-124248208D01*
X164403910Y-124106231D01*
X164137157Y-123973778D01*
X163865246Y-123850747D01*
X163587941Y-123737038D01*
X163305007Y-123632549D01*
X163016207Y-123537180D01*
X162721308Y-123450831D01*
X162420072Y-123373400D01*
X162112266Y-123304786D01*
X161797652Y-123244889D01*
X161475996Y-123193608D01*
X161283619Y-123166501D01*
X161115448Y-123144809D01*
X160960248Y-123127679D01*
X160806784Y-123114262D01*
X160643821Y-123103706D01*
X160460126Y-123095160D01*
X159985594Y-123080693D01*
X159304289Y-123063451D01*
X159417814Y-123013402D01*
X159582064Y-122948850D01*
X159765034Y-122891422D01*
X159964940Y-122841184D01*
X160179997Y-122798198D01*
X160408421Y-122762530D01*
X160648427Y-122734246D01*
X160898231Y-122713408D01*
X161156048Y-122700082D01*
X161420094Y-122694332D01*
X161688585Y-122696223D01*
G37*
G36*
X162475752Y-132125798D02*
G01*
X162461266Y-132154700D01*
X162448372Y-132183129D01*
X162437083Y-132210959D01*
X162427414Y-132238065D01*
X162419376Y-132264318D01*
X162412984Y-132289595D01*
X162408251Y-132313769D01*
X162406511Y-132325402D01*
X162405190Y-132336713D01*
X162404290Y-132347684D01*
X162403814Y-132358301D01*
X162403762Y-132368548D01*
X162404136Y-132378408D01*
X162404939Y-132387867D01*
X162406171Y-132396908D01*
X162407834Y-132405516D01*
X162409931Y-132413674D01*
X162412462Y-132421368D01*
X162415429Y-132428581D01*
X162418834Y-132435297D01*
X162422679Y-132441501D01*
X162426965Y-132447177D01*
X162431694Y-132452310D01*
X162436868Y-132456883D01*
X162442488Y-132460881D01*
X162454844Y-132466593D01*
X162470046Y-132469904D01*
X162487956Y-132470891D01*
X162508435Y-132469632D01*
X162556544Y-132460688D01*
X162613264Y-132443689D01*
X162677483Y-132419256D01*
X162748092Y-132388008D01*
X162823980Y-132350566D01*
X162904038Y-132307549D01*
X162987154Y-132259578D01*
X163072218Y-132207271D01*
X163158120Y-132151249D01*
X163243750Y-132092131D01*
X163327997Y-132030538D01*
X163409751Y-131967088D01*
X163487901Y-131902403D01*
X163561339Y-131837102D01*
X163632246Y-131769638D01*
X163700341Y-131701048D01*
X163765661Y-131631273D01*
X163828242Y-131560257D01*
X163888123Y-131487942D01*
X163945341Y-131414270D01*
X163999933Y-131339185D01*
X164051937Y-131262627D01*
X164101390Y-131184541D01*
X164148330Y-131104869D01*
X164192794Y-131023553D01*
X164234820Y-130940536D01*
X164274444Y-130855760D01*
X164311705Y-130769168D01*
X164346640Y-130680703D01*
X164379286Y-130590306D01*
X164398946Y-130532435D01*
X164416286Y-130479326D01*
X164431334Y-130430723D01*
X164444116Y-130386368D01*
X164454658Y-130346001D01*
X164462988Y-130309366D01*
X164466332Y-130292367D01*
X164469133Y-130276205D01*
X164471394Y-130260846D01*
X164473118Y-130246259D01*
X164474309Y-130232411D01*
X164474971Y-130219270D01*
X164475106Y-130206804D01*
X164474718Y-130194981D01*
X164473811Y-130183769D01*
X164472387Y-130173134D01*
X164470450Y-130163046D01*
X164468003Y-130153471D01*
X164465050Y-130144377D01*
X164461593Y-130135733D01*
X164457637Y-130127506D01*
X164453185Y-130119664D01*
X164448240Y-130112174D01*
X164442805Y-130105004D01*
X164436884Y-130098122D01*
X164430479Y-130091496D01*
X164409289Y-130073472D01*
X164397256Y-130066073D01*
X164383054Y-130059655D01*
X164365777Y-130054151D01*
X164344518Y-130049490D01*
X164318371Y-130045603D01*
X164286427Y-130042420D01*
X164201524Y-130037889D01*
X164082554Y-130035342D01*
X163713392Y-130033971D01*
X163510599Y-130033665D01*
X163426138Y-130033189D01*
X163351812Y-130032414D01*
X163286753Y-130031276D01*
X163230096Y-130029714D01*
X163180973Y-130027664D01*
X163138518Y-130025063D01*
X163101863Y-130021849D01*
X163070142Y-130017959D01*
X163042488Y-130013330D01*
X163029916Y-130010719D01*
X163018035Y-130007900D01*
X162995915Y-130001604D01*
X162975262Y-129994382D01*
X162955209Y-129986169D01*
X162934889Y-129976903D01*
X162903567Y-129960932D01*
X162873879Y-129943545D01*
X162845853Y-129924781D01*
X162819517Y-129904679D01*
X162794899Y-129883277D01*
X162772027Y-129860616D01*
X162750928Y-129836733D01*
X162731632Y-129811669D01*
X162714167Y-129785462D01*
X162698559Y-129758152D01*
X162684837Y-129729778D01*
X162673030Y-129700378D01*
X162663166Y-129669992D01*
X162655271Y-129638659D01*
X162649375Y-129606418D01*
X162645506Y-129573308D01*
X162643822Y-129550347D01*
X162642847Y-129528698D01*
X162642689Y-129507969D01*
X162643458Y-129487768D01*
X162645261Y-129467705D01*
X162648207Y-129447389D01*
X162652404Y-129426428D01*
X162657961Y-129404431D01*
X162664986Y-129381007D01*
X162673587Y-129355766D01*
X162683874Y-129328315D01*
X162695953Y-129298263D01*
X162725926Y-129228795D01*
X162764372Y-129144231D01*
X162790376Y-129086693D01*
X162814000Y-129032000D01*
X162834776Y-128981423D01*
X162852234Y-128936234D01*
X162859572Y-128916057D01*
X162865905Y-128897704D01*
X162871173Y-128881334D01*
X162875319Y-128867105D01*
X162878283Y-128855176D01*
X162880007Y-128845707D01*
X162880432Y-128838856D01*
X162880139Y-128836462D01*
X162879500Y-128834782D01*
X162830008Y-128829276D01*
X162693091Y-128824347D01*
X162184109Y-128816415D01*
X160415434Y-128809605D01*
X157967314Y-128809605D01*
X157741408Y-128949834D01*
X157686177Y-128983084D01*
X157631880Y-129013838D01*
X157578451Y-129042115D01*
X157525826Y-129067934D01*
X157473940Y-129091313D01*
X157422728Y-129112271D01*
X157372125Y-129130826D01*
X157322067Y-129146996D01*
X157272490Y-129160801D01*
X157223328Y-129172259D01*
X157174516Y-129181388D01*
X157125991Y-129188207D01*
X157077687Y-129192734D01*
X157029539Y-129194989D01*
X156981483Y-129194989D01*
X156933455Y-129192754D01*
X156898357Y-129189659D01*
X156863393Y-129185339D01*
X156828595Y-129179814D01*
X156793994Y-129173106D01*
X156759621Y-129165234D01*
X156725508Y-129156220D01*
X156658183Y-129134849D01*
X156592269Y-129109158D01*
X156528016Y-129079315D01*
X156465674Y-129045485D01*
X156405491Y-129007836D01*
X156347718Y-128966534D01*
X156292604Y-128921745D01*
X156240399Y-128873636D01*
X156191352Y-128822373D01*
X156145713Y-128768123D01*
X156124249Y-128739930D01*
X156103730Y-128711052D01*
X156084189Y-128681511D01*
X156065655Y-128651328D01*
X156048161Y-128620522D01*
X156031737Y-128589116D01*
X156009255Y-128542061D01*
X155999808Y-128520436D01*
X155991470Y-128499609D01*
X155984176Y-128479227D01*
X155977859Y-128458938D01*
X155972455Y-128438388D01*
X155967898Y-128417226D01*
X155964122Y-128395098D01*
X155961062Y-128371651D01*
X155958652Y-128346534D01*
X155956828Y-128319393D01*
X155955523Y-128289875D01*
X155954672Y-128257629D01*
X155954069Y-128183537D01*
X155954621Y-128107705D01*
X155955435Y-128075000D01*
X155956719Y-128045226D01*
X155958558Y-128017973D01*
X155961034Y-127992832D01*
X155964230Y-127969396D01*
X155968231Y-127947255D01*
X155973120Y-127926001D01*
X155978980Y-127905225D01*
X155985895Y-127884519D01*
X155993948Y-127863475D01*
X156003223Y-127841682D01*
X156013803Y-127818734D01*
X156025772Y-127794221D01*
X156039213Y-127767735D01*
X156070206Y-127711388D01*
X156104088Y-127657014D01*
X156140750Y-127604702D01*
X156180083Y-127554537D01*
X156221977Y-127506605D01*
X156266324Y-127460992D01*
X156313014Y-127417786D01*
X156361937Y-127377072D01*
X156412984Y-127338937D01*
X156466047Y-127303466D01*
X156521015Y-127270746D01*
X156577779Y-127240864D01*
X156636231Y-127213905D01*
X156696261Y-127189956D01*
X156757759Y-127169103D01*
X156820616Y-127151433D01*
X156874894Y-127138486D01*
X156899474Y-127133273D01*
X156922759Y-127128886D01*
X156945060Y-127125312D01*
X156966684Y-127122543D01*
X156987940Y-127120566D01*
X157009138Y-127119370D01*
X157030587Y-127118946D01*
X157052594Y-127119281D01*
X157075470Y-127120364D01*
X157099523Y-127122186D01*
X157125062Y-127124734D01*
X157152395Y-127127999D01*
X157213682Y-127136632D01*
X157261538Y-127144334D01*
X157306758Y-127152643D01*
X157349619Y-127161680D01*
X157390399Y-127171565D01*
X157429378Y-127182419D01*
X157466833Y-127194364D01*
X157503043Y-127207519D01*
X157538284Y-127222005D01*
X157572837Y-127237943D01*
X157606978Y-127255454D01*
X157640987Y-127274658D01*
X157675140Y-127295676D01*
X157709717Y-127318629D01*
X157744996Y-127343637D01*
X157781254Y-127370822D01*
X157818770Y-127400304D01*
X157980131Y-127529698D01*
X160955824Y-127530003D01*
X162214588Y-127531892D01*
X163169855Y-127537328D01*
X163787207Y-127545968D01*
X163958409Y-127551382D01*
X164032225Y-127557469D01*
X164042970Y-127560774D01*
X164054395Y-127564979D01*
X164066399Y-127570021D01*
X164078881Y-127575835D01*
X164091739Y-127582355D01*
X164104872Y-127589519D01*
X164118180Y-127597260D01*
X164131560Y-127605515D01*
X164144911Y-127614219D01*
X164158132Y-127623307D01*
X164171122Y-127632715D01*
X164183780Y-127642377D01*
X164196005Y-127652230D01*
X164207694Y-127662209D01*
X164218747Y-127672249D01*
X164229063Y-127682286D01*
X164243659Y-127697332D01*
X164256805Y-127711541D01*
X164268589Y-127725120D01*
X164279095Y-127738281D01*
X164288412Y-127751233D01*
X164296625Y-127764185D01*
X164303822Y-127777347D01*
X164310087Y-127790929D01*
X164315509Y-127805140D01*
X164320173Y-127820190D01*
X164324167Y-127836289D01*
X164327575Y-127853647D01*
X164330486Y-127872473D01*
X164332985Y-127892976D01*
X164335160Y-127915367D01*
X164337095Y-127939854D01*
X164340070Y-127991694D01*
X164340355Y-128014744D01*
X164339574Y-128036686D01*
X164337526Y-128058125D01*
X164334012Y-128079667D01*
X164328833Y-128101916D01*
X164321789Y-128125478D01*
X164312680Y-128150956D01*
X164301308Y-128178955D01*
X164287472Y-128210082D01*
X164270974Y-128244940D01*
X164229190Y-128328269D01*
X164174360Y-128433781D01*
X164128512Y-128522699D01*
X164108750Y-128562163D01*
X164091000Y-128598552D01*
X164075188Y-128632057D01*
X164061241Y-128662869D01*
X164049087Y-128691178D01*
X164038653Y-128717175D01*
X164029865Y-128741052D01*
X164022652Y-128762999D01*
X164016939Y-128783207D01*
X164012655Y-128801866D01*
X164009727Y-128819169D01*
X164008081Y-128835305D01*
X164007644Y-128850466D01*
X164008345Y-128864842D01*
X164017042Y-128962804D01*
X164542174Y-128978062D01*
X164649524Y-128981821D01*
X164752471Y-128986562D01*
X164848597Y-128992093D01*
X164935488Y-128998223D01*
X165010727Y-129004761D01*
X165071899Y-129011515D01*
X165096455Y-129014913D01*
X165116588Y-129018294D01*
X165131996Y-129021633D01*
X165142378Y-129024907D01*
X165166699Y-129036178D01*
X165191554Y-129049668D01*
X165216752Y-129065189D01*
X165242101Y-129082552D01*
X165267411Y-129101569D01*
X165292488Y-129122051D01*
X165317142Y-129143811D01*
X165341181Y-129166661D01*
X165364414Y-129190412D01*
X165386648Y-129214876D01*
X165407693Y-129239865D01*
X165427357Y-129265190D01*
X165445449Y-129290664D01*
X165461776Y-129316098D01*
X165476147Y-129341304D01*
X165488371Y-129366093D01*
X165501599Y-129399700D01*
X165513596Y-129438990D01*
X165524335Y-129483419D01*
X165533787Y-129532443D01*
X165541925Y-129585519D01*
X165548718Y-129642103D01*
X165554140Y-129701653D01*
X165558161Y-129763623D01*
X165561889Y-129892653D01*
X165561539Y-129958625D01*
X165559675Y-130024844D01*
X165556269Y-130090766D01*
X165551292Y-130155848D01*
X165544716Y-130219546D01*
X165536513Y-130281316D01*
X165525936Y-130344584D01*
X165512559Y-130411737D01*
X165496570Y-130482219D01*
X165478162Y-130555473D01*
X165434846Y-130708071D01*
X165384134Y-130865079D01*
X165327551Y-131022043D01*
X165266618Y-131174513D01*
X165202860Y-131318034D01*
X165170398Y-131385048D01*
X165137800Y-131448155D01*
X165099892Y-131517312D01*
X165060666Y-131585353D01*
X165020037Y-131652389D01*
X164977917Y-131718531D01*
X164934220Y-131783890D01*
X164888859Y-131848577D01*
X164841748Y-131912702D01*
X164792799Y-131976376D01*
X164741926Y-132039711D01*
X164689043Y-132102817D01*
X164634062Y-132165805D01*
X164576897Y-132228785D01*
X164517461Y-132291870D01*
X164455667Y-132355169D01*
X164391429Y-132418793D01*
X164324660Y-132482854D01*
X164208841Y-132588982D01*
X164090995Y-132690282D01*
X163971096Y-132786766D01*
X163849118Y-132878450D01*
X163725037Y-132965345D01*
X163598828Y-133047467D01*
X163470466Y-133124828D01*
X163339924Y-133197442D01*
X163207179Y-133265323D01*
X163072204Y-133328484D01*
X162934976Y-133386940D01*
X162795468Y-133440703D01*
X162653655Y-133489787D01*
X162509513Y-133534207D01*
X162363017Y-133573975D01*
X162214140Y-133609105D01*
X162213759Y-133609105D01*
X162114850Y-133629457D01*
X162021168Y-133646155D01*
X161932582Y-133659184D01*
X161848959Y-133668528D01*
X161770168Y-133674171D01*
X161696076Y-133676096D01*
X161626552Y-133674287D01*
X161593462Y-133671978D01*
X161561465Y-133668729D01*
X161530543Y-133664538D01*
X161500681Y-133659404D01*
X161471862Y-133653325D01*
X161444069Y-133646298D01*
X161417287Y-133638322D01*
X161391498Y-133629394D01*
X161366686Y-133619513D01*
X161342835Y-133608676D01*
X161319928Y-133596881D01*
X161297948Y-133584127D01*
X161276880Y-133570412D01*
X161256707Y-133555733D01*
X161237411Y-133540088D01*
X161218978Y-133523475D01*
X161201389Y-133505893D01*
X161184630Y-133487340D01*
X161159757Y-133455775D01*
X161138270Y-133422994D01*
X161120172Y-133388823D01*
X161105465Y-133353089D01*
X161094152Y-133315619D01*
X161086235Y-133276242D01*
X161081718Y-133234783D01*
X161080603Y-133191071D01*
X161082892Y-133144933D01*
X161088589Y-133096195D01*
X161097695Y-133044685D01*
X161110214Y-132990230D01*
X161126149Y-132932657D01*
X161145502Y-132871795D01*
X161168275Y-132807469D01*
X161194472Y-132739507D01*
X161235278Y-132634933D01*
X161250227Y-132592550D01*
X161261073Y-132556208D01*
X161264847Y-132540171D01*
X161267464Y-132525487D01*
X161268880Y-132512103D01*
X161269052Y-132499966D01*
X161267934Y-132489025D01*
X161265485Y-132479226D01*
X161261659Y-132470517D01*
X161256413Y-132462846D01*
X161249703Y-132456159D01*
X161241485Y-132450404D01*
X161231717Y-132445529D01*
X161220353Y-132441482D01*
X161207350Y-132438209D01*
X161192664Y-132435658D01*
X161176251Y-132433776D01*
X161158069Y-132432512D01*
X161116217Y-132431623D01*
X161066758Y-132432572D01*
X160943617Y-132438298D01*
X160507054Y-132458039D01*
X159885954Y-132483159D01*
X158551802Y-132538091D01*
X157877993Y-132565366D01*
X157075438Y-132594701D01*
X156721478Y-132607606D01*
X156418823Y-132620126D01*
X156199611Y-132630728D01*
X156131338Y-132634832D01*
X156095976Y-132637883D01*
X156084521Y-132639951D01*
X156073500Y-132642630D01*
X156062870Y-132645957D01*
X156052585Y-132649968D01*
X156042601Y-132654699D01*
X156032873Y-132660186D01*
X156023357Y-132666464D01*
X156014008Y-132673569D01*
X156004781Y-132681539D01*
X155995632Y-132690408D01*
X155986517Y-132700213D01*
X155977390Y-132710989D01*
X155968208Y-132722773D01*
X155958925Y-132735601D01*
X155949496Y-132749508D01*
X155939879Y-132764531D01*
X155921982Y-132791652D01*
X155902326Y-132818504D01*
X155880974Y-132845035D01*
X155857994Y-132871190D01*
X155833450Y-132896916D01*
X155807407Y-132922159D01*
X155779932Y-132946866D01*
X155751089Y-132970982D01*
X155720945Y-132994455D01*
X155689564Y-133017231D01*
X155657013Y-133039255D01*
X155623357Y-133060475D01*
X155588660Y-133080837D01*
X155552989Y-133100286D01*
X155516410Y-133118770D01*
X155478987Y-133136235D01*
X155389818Y-133172497D01*
X155299606Y-133201839D01*
X155208691Y-133224317D01*
X155117411Y-133239985D01*
X155026106Y-133248898D01*
X154935115Y-133251109D01*
X154844778Y-133246673D01*
X154755434Y-133235646D01*
X154667422Y-133218081D01*
X154581082Y-133194034D01*
X154496752Y-133163558D01*
X154414772Y-133126708D01*
X154335482Y-133083539D01*
X154259220Y-133034105D01*
X154186326Y-132978461D01*
X154151249Y-132948327D01*
X154117140Y-132916661D01*
X154066711Y-132864792D01*
X154020616Y-132810814D01*
X153978819Y-132754906D01*
X153941283Y-132697248D01*
X153907974Y-132638020D01*
X153878856Y-132577401D01*
X153853894Y-132515570D01*
X153833051Y-132452708D01*
X153816293Y-132388994D01*
X153803583Y-132324607D01*
X153794886Y-132259728D01*
X153790167Y-132194535D01*
X153789389Y-132129209D01*
X153792423Y-132065911D01*
X154495051Y-132065911D01*
X154495521Y-132087249D01*
X154497923Y-132135869D01*
X154501113Y-132173416D01*
X154505925Y-132209127D01*
X154512386Y-132243043D01*
X154516243Y-132259343D01*
X154520524Y-132275210D01*
X154525231Y-132290651D01*
X154530368Y-132305671D01*
X154535938Y-132320276D01*
X154541945Y-132334470D01*
X154548392Y-132348260D01*
X154555284Y-132361651D01*
X154562622Y-132374648D01*
X154570412Y-132387257D01*
X154578656Y-132399484D01*
X154587358Y-132411333D01*
X154596521Y-132422811D01*
X154606149Y-132433922D01*
X154616246Y-132444672D01*
X154626815Y-132455068D01*
X154637859Y-132465113D01*
X154649382Y-132474814D01*
X154661388Y-132484176D01*
X154673879Y-132493205D01*
X154686860Y-132501906D01*
X154700334Y-132510285D01*
X154714305Y-132518347D01*
X154728775Y-132526097D01*
X154759230Y-132540685D01*
X154759230Y-132540990D01*
X154788105Y-132553052D01*
X154816573Y-132563432D01*
X154844689Y-132572127D01*
X154872506Y-132579137D01*
X154900080Y-132584458D01*
X154927465Y-132588089D01*
X154954715Y-132590029D01*
X154981884Y-132590276D01*
X155009028Y-132588827D01*
X155036200Y-132585681D01*
X155063455Y-132580837D01*
X155090847Y-132574292D01*
X155118432Y-132566045D01*
X155146262Y-132556093D01*
X155174393Y-132544436D01*
X155202879Y-132531071D01*
X155231714Y-132515817D01*
X155259048Y-132499366D01*
X155284868Y-132481781D01*
X155309165Y-132463128D01*
X155331928Y-132443469D01*
X155353147Y-132422870D01*
X155372811Y-132401395D01*
X155390909Y-132379108D01*
X155407432Y-132356073D01*
X155422368Y-132332354D01*
X155435707Y-132308016D01*
X155447439Y-132283123D01*
X155457553Y-132257738D01*
X155466038Y-132231927D01*
X155472884Y-132205753D01*
X155478081Y-132179280D01*
X155481618Y-132152573D01*
X155483484Y-132125696D01*
X155483669Y-132098714D01*
X155482162Y-132071690D01*
X155478953Y-132044688D01*
X155474032Y-132017773D01*
X155467387Y-131991009D01*
X155459009Y-131964460D01*
X155448886Y-131938191D01*
X155437009Y-131912265D01*
X155423366Y-131886747D01*
X155407948Y-131861701D01*
X155390743Y-131837191D01*
X155371742Y-131813282D01*
X155350933Y-131790037D01*
X155328306Y-131767522D01*
X155305489Y-131747114D01*
X155282154Y-131728289D01*
X155258344Y-131711041D01*
X155234104Y-131695363D01*
X155209474Y-131681250D01*
X155184500Y-131668697D01*
X155159222Y-131657697D01*
X155133685Y-131648246D01*
X155107931Y-131640336D01*
X155082004Y-131633963D01*
X155055945Y-131629121D01*
X155029798Y-131625804D01*
X155003606Y-131624007D01*
X154977412Y-131623724D01*
X154951258Y-131624948D01*
X154925188Y-131627675D01*
X154899245Y-131631898D01*
X154873471Y-131637613D01*
X154847909Y-131644813D01*
X154822603Y-131653492D01*
X154797594Y-131663645D01*
X154772927Y-131675267D01*
X154748644Y-131688351D01*
X154724788Y-131702891D01*
X154701401Y-131718883D01*
X154678528Y-131736320D01*
X154656210Y-131755197D01*
X154634490Y-131775507D01*
X154613413Y-131797247D01*
X154593019Y-131820408D01*
X154573353Y-131844987D01*
X154554457Y-131870976D01*
X154544434Y-131885776D01*
X154535480Y-131899870D01*
X154527551Y-131913458D01*
X154520604Y-131926742D01*
X154514594Y-131939925D01*
X154509479Y-131953207D01*
X154505214Y-131966791D01*
X154501757Y-131980878D01*
X154499063Y-131995669D01*
X154497089Y-132011366D01*
X154495791Y-132028171D01*
X154495126Y-132046285D01*
X154495051Y-132065911D01*
X153792423Y-132065911D01*
X153792518Y-132063929D01*
X153799518Y-131998874D01*
X153810353Y-131934224D01*
X153824987Y-131870159D01*
X153843385Y-131806858D01*
X153865512Y-131744501D01*
X153891332Y-131683268D01*
X153920808Y-131623338D01*
X153953907Y-131564890D01*
X153990591Y-131508105D01*
X154030827Y-131453162D01*
X154074577Y-131400240D01*
X154121806Y-131349519D01*
X154172479Y-131301179D01*
X154226560Y-131255400D01*
X154284014Y-131212360D01*
X154344805Y-131172239D01*
X154408897Y-131135218D01*
X154476256Y-131101476D01*
X154568410Y-131062545D01*
X154662010Y-131030581D01*
X154756695Y-131005534D01*
X154852102Y-130987359D01*
X154947868Y-130976007D01*
X155043630Y-130971431D01*
X155139026Y-130973584D01*
X155233692Y-130982419D01*
X155327267Y-130997887D01*
X155419388Y-131019942D01*
X155509692Y-131048537D01*
X155597816Y-131083623D01*
X155683398Y-131125153D01*
X155766075Y-131173081D01*
X155845484Y-131227358D01*
X155921263Y-131287938D01*
X156053633Y-131402074D01*
X156656813Y-131370793D01*
X159203638Y-131255685D01*
X161777815Y-131158086D01*
X161969968Y-131152176D01*
X162049038Y-131150061D01*
X162118032Y-131148575D01*
X162177898Y-131147772D01*
X162229581Y-131147703D01*
X162274029Y-131148421D01*
X162312187Y-131149979D01*
X162329204Y-131151090D01*
X162345004Y-131152430D01*
X162359705Y-131154006D01*
X162373426Y-131155825D01*
X162386284Y-131157893D01*
X162398398Y-131160218D01*
X162409887Y-131162804D01*
X162420869Y-131165660D01*
X162431462Y-131168792D01*
X162441785Y-131172205D01*
X162462092Y-131179905D01*
X162482737Y-131188812D01*
X162504667Y-131198979D01*
X162526644Y-131210003D01*
X162547454Y-131221672D01*
X162567096Y-131233980D01*
X162585570Y-131246922D01*
X162602875Y-131260492D01*
X162619010Y-131274684D01*
X162633973Y-131289494D01*
X162647764Y-131304916D01*
X162660382Y-131320944D01*
X162671825Y-131337573D01*
X162682093Y-131354797D01*
X162691186Y-131372612D01*
X162699101Y-131391011D01*
X162705837Y-131409990D01*
X162711395Y-131429542D01*
X162715773Y-131449662D01*
X162718969Y-131470345D01*
X162720984Y-131491586D01*
X162721815Y-131513378D01*
X162721463Y-131535717D01*
X162719926Y-131558597D01*
X162717202Y-131582013D01*
X162713292Y-131605958D01*
X162708193Y-131630429D01*
X162694429Y-131680922D01*
X162675902Y-131733448D01*
X162652603Y-131787964D01*
X162624525Y-131844426D01*
X162490073Y-132098714D01*
X162475752Y-132125798D01*
G37*
G36*
X163321720Y-124490046D02*
G01*
X163509355Y-124567942D01*
X163693760Y-124651041D01*
X163875434Y-124739528D01*
X164054877Y-124833586D01*
X164232589Y-124933396D01*
X164409071Y-125039141D01*
X164584822Y-125151006D01*
X164852069Y-125334242D01*
X165107947Y-125526419D01*
X165352185Y-125727164D01*
X165584513Y-125936106D01*
X165804662Y-126152872D01*
X166012361Y-126377089D01*
X166207339Y-126608386D01*
X166389326Y-126846391D01*
X166558053Y-127090730D01*
X166713249Y-127341034D01*
X166854643Y-127596928D01*
X166981966Y-127858041D01*
X167094947Y-128124001D01*
X167193316Y-128394435D01*
X167276803Y-128668972D01*
X167345137Y-128947240D01*
X167368202Y-129056436D01*
X167386105Y-129152504D01*
X167399501Y-129243329D01*
X167409043Y-129336797D01*
X167415383Y-129440793D01*
X167419177Y-129563204D01*
X167421076Y-129711914D01*
X167421736Y-129894810D01*
X167421462Y-130067717D01*
X167419819Y-130212763D01*
X167416431Y-130335575D01*
X167410921Y-130441781D01*
X167407254Y-130490415D01*
X167402916Y-130537007D01*
X167397860Y-130582262D01*
X167392039Y-130626882D01*
X167377914Y-130717032D01*
X167360167Y-130813084D01*
X167298006Y-131092097D01*
X167221531Y-131365433D01*
X167130825Y-131632976D01*
X167025974Y-131894606D01*
X166907063Y-132150206D01*
X166774175Y-132399657D01*
X166627397Y-132642841D01*
X166466812Y-132879639D01*
X166292507Y-133109935D01*
X166104564Y-133333608D01*
X165903070Y-133550542D01*
X165688110Y-133760618D01*
X165459767Y-133963717D01*
X165218127Y-134159721D01*
X164963275Y-134348512D01*
X164695296Y-134529973D01*
X164505735Y-134648119D01*
X164311347Y-134760213D01*
X164112202Y-134866234D01*
X163908366Y-134966160D01*
X163699908Y-135059968D01*
X163486896Y-135147637D01*
X163269397Y-135229146D01*
X163047480Y-135304471D01*
X162821212Y-135373591D01*
X162590661Y-135436485D01*
X162355896Y-135493130D01*
X162116985Y-135543505D01*
X161873994Y-135587587D01*
X161626993Y-135625354D01*
X161376048Y-135656786D01*
X161121229Y-135681859D01*
X161121229Y-135682317D01*
X160928536Y-135692851D01*
X160674836Y-135698267D01*
X160380899Y-135698941D01*
X160067496Y-135695248D01*
X159755393Y-135687565D01*
X159465362Y-135676266D01*
X159218171Y-135661726D01*
X159034590Y-135644322D01*
X158815141Y-135613267D01*
X158598750Y-135577174D01*
X158385523Y-135536081D01*
X158175564Y-135490025D01*
X157968980Y-135439044D01*
X157765877Y-135383174D01*
X157566359Y-135322454D01*
X157370533Y-135256921D01*
X157178504Y-135186611D01*
X156990378Y-135111562D01*
X156806260Y-135031813D01*
X156626256Y-134947398D01*
X156450472Y-134858358D01*
X156279012Y-134764727D01*
X156111984Y-134666545D01*
X155949492Y-134563847D01*
X155896313Y-134527967D01*
X155839350Y-134487609D01*
X155779599Y-134443623D01*
X155718054Y-134396857D01*
X155655712Y-134348158D01*
X155593568Y-134298376D01*
X155473856Y-134198952D01*
X155418280Y-134151008D01*
X155366883Y-134105373D01*
X155320662Y-134062895D01*
X155280613Y-134024423D01*
X155247731Y-133990805D01*
X155223011Y-133962889D01*
X155207449Y-133941523D01*
X155203413Y-133933562D01*
X155202040Y-133927556D01*
X155205405Y-133920270D01*
X155215564Y-133915940D01*
X155232613Y-133914593D01*
X155256646Y-133916255D01*
X155326051Y-133928715D01*
X155424542Y-133953534D01*
X155552884Y-133990928D01*
X155711842Y-134041110D01*
X155902180Y-134104296D01*
X156124663Y-134180699D01*
X156531845Y-134312634D01*
X156947974Y-134428543D01*
X157371316Y-134528385D01*
X157800137Y-134612118D01*
X158232704Y-134679698D01*
X158667281Y-134731083D01*
X159102137Y-134766231D01*
X159535536Y-134785100D01*
X159965745Y-134787646D01*
X160391030Y-134773828D01*
X160809658Y-134743603D01*
X161219894Y-134696928D01*
X161620005Y-134633761D01*
X162008256Y-134554060D01*
X162382915Y-134457781D01*
X162742247Y-134344884D01*
X163057720Y-134227531D01*
X163361712Y-134097536D01*
X163653774Y-133955314D01*
X163933460Y-133801280D01*
X164200320Y-133635848D01*
X164453907Y-133459433D01*
X164693771Y-133272450D01*
X164919466Y-133075314D01*
X165130543Y-132868440D01*
X165326554Y-132652243D01*
X165507050Y-132427137D01*
X165671584Y-132193538D01*
X165819707Y-131951859D01*
X165950971Y-131702517D01*
X166064929Y-131445925D01*
X166161131Y-131182500D01*
X166214268Y-131008778D01*
X166237387Y-130923743D01*
X166258264Y-130839489D01*
X166276942Y-130755689D01*
X166293465Y-130672014D01*
X166307874Y-130588137D01*
X166320214Y-130503732D01*
X166330526Y-130418469D01*
X166338855Y-130332023D01*
X166345243Y-130244066D01*
X166349733Y-130154269D01*
X166353193Y-129967850D01*
X166349577Y-129770146D01*
X166344322Y-129649357D01*
X166336832Y-129533128D01*
X166326989Y-129420994D01*
X166314675Y-129312492D01*
X166299773Y-129207157D01*
X166282165Y-129104524D01*
X166261733Y-129004129D01*
X166238360Y-128905507D01*
X166211927Y-128808194D01*
X166182316Y-128711726D01*
X166149411Y-128615637D01*
X166113092Y-128519464D01*
X166073243Y-128422742D01*
X166029745Y-128325007D01*
X165982482Y-128225794D01*
X165931334Y-128124638D01*
X165774105Y-127843910D01*
X165599395Y-127572762D01*
X165407985Y-127311758D01*
X165200651Y-127061461D01*
X164978173Y-126822435D01*
X164741330Y-126595245D01*
X164490900Y-126380455D01*
X164227661Y-126178628D01*
X163952393Y-125990328D01*
X163665874Y-125816119D01*
X163368882Y-125656566D01*
X163062196Y-125512231D01*
X162746595Y-125383680D01*
X162422858Y-125271475D01*
X162091762Y-125176182D01*
X161754088Y-125098363D01*
X161532354Y-125055190D01*
X161328520Y-125022150D01*
X161110824Y-124997699D01*
X160847506Y-124980298D01*
X160506804Y-124968404D01*
X160056957Y-124960476D01*
X158702788Y-124950352D01*
X156511397Y-124938603D01*
X156454252Y-125048161D01*
X156435726Y-125080832D01*
X156413784Y-125114329D01*
X156388670Y-125148437D01*
X156360629Y-125182942D01*
X156329905Y-125217628D01*
X156296744Y-125252280D01*
X156261388Y-125286685D01*
X156224083Y-125320626D01*
X156185073Y-125353890D01*
X156144603Y-125386261D01*
X156102916Y-125417525D01*
X156060257Y-125447467D01*
X156016872Y-125475872D01*
X155973003Y-125502525D01*
X155928896Y-125527212D01*
X155884794Y-125549718D01*
X155814933Y-125583257D01*
X155785122Y-125596861D01*
X155757685Y-125608547D01*
X155731842Y-125618463D01*
X155706812Y-125626753D01*
X155681817Y-125633563D01*
X155656075Y-125639039D01*
X155628807Y-125643325D01*
X155599232Y-125646568D01*
X155566572Y-125648912D01*
X155530045Y-125650504D01*
X155442274Y-125652013D01*
X155329680Y-125652257D01*
X155216961Y-125651998D01*
X155170326Y-125651455D01*
X155129126Y-125650442D01*
X155092572Y-125648814D01*
X155059878Y-125646423D01*
X155030257Y-125643124D01*
X155002922Y-125638772D01*
X154977087Y-125633219D01*
X154951964Y-125626321D01*
X154926767Y-125617931D01*
X154900709Y-125607904D01*
X154873002Y-125596092D01*
X154842860Y-125582352D01*
X154772124Y-125548497D01*
X154713646Y-125518376D01*
X154657469Y-125485845D01*
X154603627Y-125451003D01*
X154552152Y-125413949D01*
X154503080Y-125374784D01*
X154456443Y-125333608D01*
X154412275Y-125290520D01*
X154370610Y-125245620D01*
X154331482Y-125199007D01*
X154294924Y-125150783D01*
X154260971Y-125101046D01*
X154229655Y-125049896D01*
X154201011Y-124997433D01*
X154175072Y-124943757D01*
X154151872Y-124888968D01*
X154131445Y-124833165D01*
X154113825Y-124776448D01*
X154099044Y-124718918D01*
X154087138Y-124660673D01*
X154078139Y-124601814D01*
X154072082Y-124542441D01*
X154069000Y-124482653D01*
X154068931Y-124426659D01*
X154812924Y-124426659D01*
X154813247Y-124444664D01*
X154814379Y-124462794D01*
X154816302Y-124481014D01*
X154818998Y-124499292D01*
X154822450Y-124517594D01*
X154826639Y-124535888D01*
X154831549Y-124554139D01*
X154837160Y-124572314D01*
X154843456Y-124590381D01*
X154850419Y-124608306D01*
X154858031Y-124626055D01*
X154866274Y-124643595D01*
X154875130Y-124660893D01*
X154884582Y-124677916D01*
X154894612Y-124694630D01*
X154905202Y-124711003D01*
X154916334Y-124727000D01*
X154927991Y-124742588D01*
X154940155Y-124757734D01*
X154952808Y-124772406D01*
X154965933Y-124786568D01*
X154979511Y-124800189D01*
X154993525Y-124813235D01*
X155007957Y-124825673D01*
X155022790Y-124837468D01*
X155038005Y-124848589D01*
X155053585Y-124859002D01*
X155069512Y-124868672D01*
X155085768Y-124877568D01*
X155115910Y-124892159D01*
X155146605Y-124904862D01*
X155177779Y-124915675D01*
X155209358Y-124924598D01*
X155241267Y-124931632D01*
X155273433Y-124936775D01*
X155305780Y-124940027D01*
X155338234Y-124941388D01*
X155370722Y-124940857D01*
X155403168Y-124938433D01*
X155435499Y-124934117D01*
X155467639Y-124927908D01*
X155499516Y-124919805D01*
X155531054Y-124909808D01*
X155562179Y-124897916D01*
X155592817Y-124884129D01*
X155619475Y-124870587D01*
X155644550Y-124856528D01*
X155668093Y-124841895D01*
X155690152Y-124826628D01*
X155710778Y-124810668D01*
X155730021Y-124793959D01*
X155747930Y-124776440D01*
X155764555Y-124758054D01*
X155779947Y-124738741D01*
X155794155Y-124718443D01*
X155807228Y-124697102D01*
X155819217Y-124674660D01*
X155830172Y-124651056D01*
X155840142Y-124626234D01*
X155849178Y-124600134D01*
X155857329Y-124572697D01*
X155862874Y-124550408D01*
X155867348Y-124527914D01*
X155870768Y-124505256D01*
X155873153Y-124482474D01*
X155874520Y-124459609D01*
X155874886Y-124436703D01*
X155874270Y-124413795D01*
X155872689Y-124390927D01*
X155870160Y-124368140D01*
X155866703Y-124345473D01*
X155862333Y-124322969D01*
X155857070Y-124300668D01*
X155850930Y-124278610D01*
X155843932Y-124256837D01*
X155836093Y-124235389D01*
X155827431Y-124214307D01*
X155817964Y-124193631D01*
X155807709Y-124173404D01*
X155796684Y-124153664D01*
X155784907Y-124134454D01*
X155772395Y-124115814D01*
X155759167Y-124097785D01*
X155745240Y-124080407D01*
X155730632Y-124063721D01*
X155715360Y-124047769D01*
X155699442Y-124032591D01*
X155682897Y-124018227D01*
X155665741Y-124004719D01*
X155647992Y-123992107D01*
X155629669Y-123980432D01*
X155610788Y-123969735D01*
X155591368Y-123960057D01*
X155565517Y-123949086D01*
X155537922Y-123939631D01*
X155508848Y-123931689D01*
X155478558Y-123925255D01*
X155447317Y-123920326D01*
X155415388Y-123916898D01*
X155383037Y-123914966D01*
X155350527Y-123914529D01*
X155318123Y-123915580D01*
X155286088Y-123918118D01*
X155254687Y-123922137D01*
X155224184Y-123927635D01*
X155194844Y-123934606D01*
X155166930Y-123943049D01*
X155140707Y-123952958D01*
X155116438Y-123964330D01*
X155089908Y-123979453D01*
X155063717Y-123996935D01*
X155038017Y-124016568D01*
X155012957Y-124038146D01*
X154988689Y-124061464D01*
X154965363Y-124086314D01*
X154943128Y-124112490D01*
X154922137Y-124139787D01*
X154902538Y-124167997D01*
X154884482Y-124196914D01*
X154868120Y-124226333D01*
X154853603Y-124256047D01*
X154841080Y-124285849D01*
X154830703Y-124315533D01*
X154822621Y-124344893D01*
X154816984Y-124373723D01*
X154814775Y-124391155D01*
X154813427Y-124408812D01*
X154812924Y-124426659D01*
X154068931Y-124426659D01*
X154068926Y-124422549D01*
X154071895Y-124362231D01*
X154077941Y-124301797D01*
X154087096Y-124241348D01*
X154099395Y-124180983D01*
X154114872Y-124120802D01*
X154133559Y-124060905D01*
X154155492Y-124001392D01*
X154180703Y-123942362D01*
X154209227Y-123883916D01*
X154237969Y-123833385D01*
X154271387Y-123783038D01*
X154309102Y-123733164D01*
X154350737Y-123684057D01*
X154395913Y-123636005D01*
X154444254Y-123589299D01*
X154495381Y-123544231D01*
X154548916Y-123501092D01*
X154604482Y-123460171D01*
X154661700Y-123421761D01*
X154720193Y-123386151D01*
X154779582Y-123353632D01*
X154839491Y-123324496D01*
X154899541Y-123299033D01*
X154959354Y-123277534D01*
X155018553Y-123260289D01*
X155060446Y-123250533D01*
X155104892Y-123242091D01*
X155151492Y-123234963D01*
X155199848Y-123229147D01*
X155249559Y-123224641D01*
X155300226Y-123221445D01*
X155351452Y-123219557D01*
X155402836Y-123218976D01*
X155453980Y-123219700D01*
X155504484Y-123221728D01*
X155553949Y-123225058D01*
X155601976Y-123229690D01*
X155648167Y-123235622D01*
X155692122Y-123242853D01*
X155733441Y-123251381D01*
X155771727Y-123261205D01*
X155824968Y-123277875D01*
X155877988Y-123297257D01*
X155930632Y-123319241D01*
X155982746Y-123343716D01*
X156034178Y-123370574D01*
X156084773Y-123399703D01*
X156134377Y-123430994D01*
X156182837Y-123464337D01*
X156229998Y-123499622D01*
X156275708Y-123536739D01*
X156319812Y-123575578D01*
X156362156Y-123616029D01*
X156402587Y-123657981D01*
X156440951Y-123701326D01*
X156477094Y-123745953D01*
X156510863Y-123791753D01*
X156592726Y-123908482D01*
X158800215Y-123920079D01*
X159500718Y-123924014D01*
X160041634Y-123927956D01*
X160449202Y-123932642D01*
X160749659Y-123938809D01*
X160867919Y-123942678D01*
X160969241Y-123947193D01*
X161056904Y-123952447D01*
X161134187Y-123958531D01*
X161204371Y-123965538D01*
X161270734Y-123973560D01*
X161405119Y-123993016D01*
X161644331Y-124032300D01*
X161875813Y-124075142D01*
X162100063Y-124121727D01*
X162317583Y-124172235D01*
X162528872Y-124226851D01*
X162734430Y-124285758D01*
X162934757Y-124349137D01*
X163130354Y-124417172D01*
X163181641Y-124436703D01*
X163321720Y-124490046D01*
G37*
M02*
