%TF.GenerationSoftware,KiCad,Pcbnew,9.0.2+dfsg-1*%
%TF.CreationDate,2026-04-06T15:16:27+03:00*%
%TF.ProjectId,ESP32Klone,45535033-324b-46c6-9f6e-652e6b696361,1/1*%
%TF.SameCoordinates,Original*%
%TF.FileFunction,Copper,L1,Top*%
%TF.FilePolarity,Positive*%
%FSLAX46Y46*%
G04 Gerber Fmt 4.6, Leading zero omitted, Abs format (unit mm)*
G04 Created by KiCad (PCBNEW 9.0.2+dfsg-1) date 2026-04-06 15:16:27*
%MOMM*%
%LPD*%
G01*
G04 APERTURE LIST*
G04 Aperture macros list*
%AMRoundRect*
0 Rectangle with rounded corners*
0 $1 Rounding radius*
0 $2 $3 $4 $5 $6 $7 $8 $9 X,Y pos of 4 corners*
0 Add a 4 corners polygon primitive as box body*
4,1,4,$2,$3,$4,$5,$6,$7,$8,$9,$2,$3,0*
0 Add four circle primitives for the rounded corners*
1,1,$1+$1,$2,$3*
1,1,$1+$1,$4,$5*
1,1,$1+$1,$6,$7*
1,1,$1+$1,$8,$9*
0 Add four rect primitives between the rounded corners*
20,1,$1+$1,$2,$3,$4,$5,0*
20,1,$1+$1,$4,$5,$6,$7,0*
20,1,$1+$1,$6,$7,$8,$9,0*
20,1,$1+$1,$8,$9,$2,$3,0*%
G04 Aperture macros list end*
%TA.AperFunction,SMDPad,CuDef*%
%ADD10RoundRect,0.150000X0.825000X0.150000X-0.825000X0.150000X-0.825000X-0.150000X0.825000X-0.150000X0*%
%TD*%
%TA.AperFunction,SMDPad,CuDef*%
%ADD11RoundRect,0.218750X0.256250X-0.218750X0.256250X0.218750X-0.256250X0.218750X-0.256250X-0.218750X0*%
%TD*%
%TA.AperFunction,SMDPad,CuDef*%
%ADD12R,1.000000X1.000000*%
%TD*%
%TA.AperFunction,SMDPad,CuDef*%
%ADD13R,0.700000X1.300000*%
%TD*%
%TA.AperFunction,SMDPad,CuDef*%
%ADD14RoundRect,0.250000X-0.750000X2.000000X-0.750000X-2.000000X0.750000X-2.000000X0.750000X2.000000X0*%
%TD*%
%TA.AperFunction,ComponentPad*%
%ADD15R,1.700000X1.700000*%
%TD*%
%TA.AperFunction,ComponentPad*%
%ADD16C,1.700000*%
%TD*%
%TA.AperFunction,SMDPad,CuDef*%
%ADD17RoundRect,0.375000X-0.625000X-0.375000X0.625000X-0.375000X0.625000X0.375000X-0.625000X0.375000X0*%
%TD*%
%TA.AperFunction,SMDPad,CuDef*%
%ADD18RoundRect,0.500000X-0.500000X-1.400000X0.500000X-1.400000X0.500000X1.400000X-0.500000X1.400000X0*%
%TD*%
%TA.AperFunction,SMDPad,CuDef*%
%ADD19RoundRect,0.250000X-0.550000X1.500000X-0.550000X-1.500000X0.550000X-1.500000X0.550000X1.500000X0*%
%TD*%
%TA.AperFunction,SMDPad,CuDef*%
%ADD20R,0.600000X1.450000*%
%TD*%
%TA.AperFunction,SMDPad,CuDef*%
%ADD21R,0.300000X1.450000*%
%TD*%
%TA.AperFunction,HeatsinkPad*%
%ADD22O,1.000000X2.100000*%
%TD*%
%TA.AperFunction,HeatsinkPad*%
%ADD23O,1.000000X1.600000*%
%TD*%
%TA.AperFunction,SMDPad,CuDef*%
%ADD24R,1.500000X0.900000*%
%TD*%
%TA.AperFunction,SMDPad,CuDef*%
%ADD25R,0.900000X1.500000*%
%TD*%
%TA.AperFunction,SMDPad,CuDef*%
%ADD26R,0.900000X0.900000*%
%TD*%
%TA.AperFunction,HeatsinkPad*%
%ADD27C,0.600000*%
%TD*%
%TA.AperFunction,HeatsinkPad*%
%ADD28R,3.800000X3.800000*%
%TD*%
%TA.AperFunction,ViaPad*%
%ADD29C,0.800000*%
%TD*%
%TA.AperFunction,ViaPad*%
%ADD30C,0.600000*%
%TD*%
%TA.AperFunction,Conductor*%
%ADD31C,0.200000*%
%TD*%
%TA.AperFunction,Conductor*%
%ADD32C,0.500000*%
%TD*%
G04 APERTURE END LIST*
D10*
%TO.P,U1,1,GND*%
%TO.N,GND*%
X151130000Y-129794000D03*
%TO.P,U1,2,TXD*%
%TO.N,/TXD{slash}RXD*%
X151130000Y-128524000D03*
%TO.P,U1,3,RXD*%
%TO.N,/RXD{slash}TXD*%
X151130000Y-127254000D03*
%TO.P,U1,4,V3*%
%TO.N,Net-(U1-V3)*%
X151130000Y-125984000D03*
%TO.P,U1,5,UD+*%
%TO.N,/D+*%
X151130000Y-124714000D03*
%TO.P,U1,6,UD-*%
%TO.N,/D-*%
X151130000Y-123444000D03*
%TO.P,U1,7,XI*%
%TO.N,Net-(U1-XI)*%
X151130000Y-122174000D03*
%TO.P,U1,8,XO*%
%TO.N,Net-(U1-XO)*%
X151130000Y-120904000D03*
%TO.P,U1,9,~{CTS}*%
%TO.N,unconnected-(U1-~{CTS}-Pad9)*%
X146180000Y-120904000D03*
%TO.P,U1,10,~{DSR}*%
%TO.N,unconnected-(U1-~{DSR}-Pad10)*%
X146180000Y-122174000D03*
%TO.P,U1,11,~{RI}*%
%TO.N,unconnected-(U1-~{RI}-Pad11)*%
X146180000Y-123444000D03*
%TO.P,U1,12,~{DCD}*%
%TO.N,unconnected-(U1-~{DCD}-Pad12)*%
X146180000Y-124714000D03*
%TO.P,U1,13,~{DTR}*%
%TO.N,Net-(U1-~{DTR})*%
X146180000Y-125984000D03*
%TO.P,U1,14,~{RTS}*%
%TO.N,Net-(U1-~{RTS})*%
X146180000Y-127254000D03*
%TO.P,U1,15,R232*%
%TO.N,unconnected-(U1-R232-Pad15)*%
X146180000Y-128524000D03*
%TO.P,U1,16,VCC*%
%TO.N,+5V*%
X146180000Y-129794000D03*
%TD*%
D11*
%TO.P,D1,1,K*%
%TO.N,GND*%
X131064000Y-119888000D03*
%TO.P,D1,2,A*%
%TO.N,Net-(D1-A)*%
X131064000Y-118313000D03*
%TD*%
D12*
%TO.P,C2,1*%
%TO.N,GND*%
X155448000Y-120054000D03*
%TO.P,C2,2*%
%TO.N,Net-(U1-XI)*%
X155448000Y-121754000D03*
%TD*%
D13*
%TO.P,C6,1*%
%TO.N,+5V*%
X147828000Y-133350000D03*
%TO.P,C6,2*%
%TO.N,GND*%
X149728000Y-133350000D03*
%TD*%
D12*
%TO.P,R2,1*%
%TO.N,Net-(J1-CC1)*%
X138176000Y-128524000D03*
%TO.P,R2,2*%
%TO.N,GND*%
X138176000Y-126824000D03*
%TD*%
D14*
%TO.P,X1,1,1*%
%TO.N,Net-(U1-XO)*%
X160782000Y-113352000D03*
%TO.P,X1,2,2*%
%TO.N,Net-(U1-XI)*%
X160782000Y-121852000D03*
%TD*%
D12*
%TO.P,C7,1*%
%TO.N,Net-(U1-~{DTR})*%
X138596000Y-124714000D03*
%TO.P,C7,2*%
%TO.N,/IO0*%
X140296000Y-124714000D03*
%TD*%
%TO.P,R3,1*%
%TO.N,/IO0*%
X133350000Y-108458000D03*
%TO.P,R3,2*%
%TO.N,+3.3V*%
X133350000Y-106758000D03*
%TD*%
D15*
%TO.P,J3,1,Pin_1*%
%TO.N,+5V*%
X168656000Y-87884000D03*
D16*
%TO.P,J3,2,Pin_2*%
%TO.N,+3.3V*%
X168656000Y-90424000D03*
%TO.P,J3,3,Pin_3*%
%TO.N,/GPIO4*%
X168656000Y-92964000D03*
%TO.P,J3,4,Pin_4*%
%TO.N,/GPIO5*%
X168656000Y-95504000D03*
%TO.P,J3,5,Pin_5*%
%TO.N,/GPIO12*%
X168656000Y-98044000D03*
%TO.P,J3,6,Pin_6*%
%TO.N,/GPIO13*%
X168656000Y-100584000D03*
%TO.P,J3,7,Pin_7*%
%TO.N,/GPIO14*%
X168656000Y-103124000D03*
%TO.P,J3,8,Pin_8*%
%TO.N,/GPIO15*%
X168656000Y-105664000D03*
%TO.P,J3,9,Pin_9*%
%TO.N,/GPIO16_RX2*%
X168656000Y-108204000D03*
%TO.P,J3,10,Pin_10*%
%TO.N,/GPIO17_TX2*%
X168656000Y-110744000D03*
%TO.P,J3,11,Pin_11*%
%TO.N,/GPIO18*%
X168656000Y-113284000D03*
%TO.P,J3,12,Pin_12*%
%TO.N,/GPIO19*%
X168656000Y-115824000D03*
%TO.P,J3,13,Pin_13*%
%TO.N,/GPIO23*%
X168656000Y-118364000D03*
%TO.P,J3,14,Pin_14*%
%TO.N,GND*%
X168656000Y-120904000D03*
%TD*%
D12*
%TO.P,C5,1*%
%TO.N,Net-(U1-V3)*%
X145034000Y-108800000D03*
%TO.P,C5,2*%
%TO.N,GND*%
X145034000Y-107100000D03*
%TD*%
D17*
%TO.P,U2,1,GND*%
%TO.N,GND*%
X135636000Y-113510000D03*
%TO.P,U2,2,VO*%
%TO.N,+3.3V*%
X135636000Y-115810000D03*
D18*
X141936000Y-115810000D03*
D17*
%TO.P,U2,3,VI*%
%TO.N,+5V*%
X135636000Y-118110000D03*
%TD*%
D12*
%TO.P,R6,1*%
%TO.N,+3.3V*%
X132334000Y-115570000D03*
%TO.P,R6,2*%
%TO.N,Net-(D1-A)*%
X130634000Y-115570000D03*
%TD*%
%TO.P,C4,1*%
%TO.N,+3.3V*%
X147740000Y-117348000D03*
%TO.P,C4,2*%
%TO.N,GND*%
X149440000Y-117348000D03*
%TD*%
%TO.P,R7,1*%
%TO.N,/TXD{slash}RXD*%
X141732000Y-106934000D03*
%TO.P,R7,2*%
%TO.N,GND*%
X141732000Y-108634000D03*
%TD*%
D15*
%TO.P,J2,1,Pin_1*%
%TO.N,+5V*%
X124206000Y-87884000D03*
D16*
%TO.P,J2,2,Pin_2*%
%TO.N,+3.3V*%
X124206000Y-90424000D03*
%TO.P,J2,3,Pin_3*%
%TO.N,/GPIO21_SDA*%
X124206000Y-92964000D03*
%TO.P,J2,4,Pin_4*%
%TO.N,/GPIO22_SCL*%
X124206000Y-95504000D03*
%TO.P,J2,5,Pin_5*%
%TO.N,/GPIO25_DAC1*%
X124206000Y-98044000D03*
%TO.P,J2,6,Pin_6*%
%TO.N,/GPIO26_DAC2*%
X124206000Y-100584000D03*
%TO.P,J2,7,Pin_7*%
%TO.N,/GPIO34_IN*%
X124206000Y-103124000D03*
%TO.P,J2,8,Pin_8*%
%TO.N,/GPIO32*%
X124206000Y-105664000D03*
%TO.P,J2,9,Pin_9*%
%TO.N,/GPIO33*%
X124206000Y-108204000D03*
%TO.P,J2,10,Pin_10*%
%TO.N,/GPIO27*%
X124206000Y-110744000D03*
%TO.P,J2,11,Pin_11*%
%TO.N,/GPIO35_IN*%
X124206000Y-113284000D03*
%TO.P,J2,12,Pin_12*%
%TO.N,/GPIO36_IN*%
X124206000Y-115824000D03*
%TO.P,J2,13,Pin_13*%
%TO.N,/GPIO39_IN*%
X124206000Y-118364000D03*
%TO.P,J2,14,Pin_14*%
%TO.N,GND*%
X124206000Y-120904000D03*
%TD*%
D12*
%TO.P,C1,1*%
%TO.N,GND*%
X155448000Y-117436000D03*
%TO.P,C1,2*%
%TO.N,Net-(U1-XO)*%
X155448000Y-115736000D03*
%TD*%
%TO.P,C3,1*%
%TO.N,Net-(U1-~{RTS})*%
X143764000Y-128612000D03*
%TO.P,C3,2*%
%TO.N,/EN*%
X143764000Y-126912000D03*
%TD*%
%TO.P,R4,1*%
%TO.N,/EN*%
X136388000Y-108458000D03*
%TO.P,R4,2*%
%TO.N,+3.3V*%
X136388000Y-106758000D03*
%TD*%
%TO.P,R1,1*%
%TO.N,Net-(J1-CC2)*%
X140970000Y-128612000D03*
%TO.P,R1,2*%
%TO.N,GND*%
X140970000Y-126912000D03*
%TD*%
D19*
%TO.P,C8,1*%
%TO.N,+3.3V*%
X131064000Y-124200000D03*
%TO.P,C8,2*%
%TO.N,GND*%
X131064000Y-129800000D03*
%TD*%
D20*
%TO.P,J1,A1,GND*%
%TO.N,GND*%
X137212000Y-132861000D03*
%TO.P,J1,A4,VBUS*%
%TO.N,+5V*%
X138012000Y-132861000D03*
D21*
%TO.P,J1,A5,CC1*%
%TO.N,Net-(J1-CC1)*%
X139212000Y-132861000D03*
%TO.P,J1,A6,D+*%
%TO.N,/D+*%
X140212000Y-132861000D03*
%TO.P,J1,A7,D-*%
%TO.N,/D-*%
X140712000Y-132861000D03*
%TO.P,J1,A8*%
%TO.N,N/C*%
X141712000Y-132861000D03*
D20*
%TO.P,J1,A9,VBUS*%
%TO.N,+5V*%
X142912000Y-132861000D03*
%TO.P,J1,A12,GND*%
%TO.N,GND*%
X143712000Y-132861000D03*
%TO.P,J1,B1,GND*%
X143712000Y-132861000D03*
%TO.P,J1,B4,VBUS*%
%TO.N,+5V*%
X142912000Y-132861000D03*
D21*
%TO.P,J1,B5,CC2*%
%TO.N,Net-(J1-CC2)*%
X142212000Y-132861000D03*
%TO.P,J1,B6,D+*%
%TO.N,/D+*%
X141212000Y-132861000D03*
%TO.P,J1,B7,D-*%
%TO.N,/D-*%
X139712000Y-132861000D03*
%TO.P,J1,B8*%
%TO.N,N/C*%
X138712000Y-132861000D03*
D20*
%TO.P,J1,B9,VBUS*%
%TO.N,+5V*%
X138012000Y-132861000D03*
%TO.P,J1,B12,GND*%
%TO.N,GND*%
X137212000Y-132861000D03*
D22*
%TO.P,J1,S1,SHIELD*%
X136142000Y-133776000D03*
D23*
X136142000Y-137956000D03*
D22*
X144782000Y-133776000D03*
D23*
X144782000Y-137956000D03*
%TD*%
D12*
%TO.P,R5,1*%
%TO.N,Net-(U3-RXD0{slash}IO3)*%
X138938000Y-108458000D03*
%TO.P,R5,2*%
%TO.N,/TXD{slash}RXD*%
X138938000Y-106758000D03*
%TD*%
D24*
%TO.P,U3,1,GND*%
%TO.N,GND*%
X137168000Y-84602000D03*
%TO.P,U3,2,VDD*%
%TO.N,+3.3V*%
X137168000Y-85872000D03*
%TO.P,U3,3,EN*%
%TO.N,/EN*%
X137168000Y-87142000D03*
%TO.P,U3,4,SENSOR_VP*%
%TO.N,/GPIO36_IN*%
X137168000Y-88412000D03*
%TO.P,U3,5,SENSOR_VN*%
%TO.N,/GPIO39_IN*%
X137168000Y-89682000D03*
%TO.P,U3,6,IO34*%
%TO.N,/GPIO34_IN*%
X137168000Y-90952000D03*
%TO.P,U3,7,IO35*%
%TO.N,/GPIO35_IN*%
X137168000Y-92222000D03*
%TO.P,U3,8,IO32*%
%TO.N,/GPIO32*%
X137168000Y-93492000D03*
%TO.P,U3,9,IO33*%
%TO.N,/GPIO33*%
X137168000Y-94762000D03*
%TO.P,U3,10,IO25*%
%TO.N,/GPIO25_DAC1*%
X137168000Y-96032000D03*
%TO.P,U3,11,IO26*%
%TO.N,/GPIO26_DAC2*%
X137168000Y-97302000D03*
%TO.P,U3,12,IO27*%
%TO.N,/GPIO27*%
X137168000Y-98572000D03*
%TO.P,U3,13,IO14*%
%TO.N,/GPIO14*%
X137168000Y-99842000D03*
%TO.P,U3,14,IO12*%
%TO.N,/GPIO12*%
X137168000Y-101112000D03*
D25*
%TO.P,U3,15,GND*%
%TO.N,GND*%
X140208000Y-102362000D03*
%TO.P,U3,16,IO13*%
%TO.N,/GPIO13*%
X141478000Y-102362000D03*
%TO.P,U3,17,NC*%
%TO.N,unconnected-(U3-NC-Pad17)*%
X142748000Y-102362000D03*
%TO.P,U3,18,NC*%
%TO.N,unconnected-(U3-NC-Pad18)*%
X144018000Y-102362000D03*
%TO.P,U3,19,NC*%
%TO.N,unconnected-(U3-NC-Pad19)*%
X145288000Y-102362000D03*
%TO.P,U3,20,NC*%
%TO.N,unconnected-(U3-NC-Pad20)*%
X146558000Y-102362000D03*
%TO.P,U3,21,NC*%
%TO.N,unconnected-(U3-NC-Pad21)*%
X147828000Y-102362000D03*
%TO.P,U3,22,NC*%
%TO.N,unconnected-(U3-NC-Pad22)*%
X149098000Y-102362000D03*
%TO.P,U3,23,IO15*%
%TO.N,/GPIO15*%
X150368000Y-102362000D03*
%TO.P,U3,24,IO2*%
%TO.N,unconnected-(U3-IO2-Pad24)*%
X151638000Y-102362000D03*
D24*
%TO.P,U3,25,IO0*%
%TO.N,/IO0*%
X154668000Y-101112000D03*
%TO.P,U3,26,IO4*%
%TO.N,/GPIO4*%
X154668000Y-99842000D03*
%TO.P,U3,27,IO16*%
%TO.N,/GPIO16_RX2*%
X154668000Y-98572000D03*
%TO.P,U3,28,IO17*%
%TO.N,/GPIO17_TX2*%
X154668000Y-97302000D03*
%TO.P,U3,29,IO5*%
%TO.N,/GPIO5*%
X154668000Y-96032000D03*
%TO.P,U3,30,IO18*%
%TO.N,/GPIO18*%
X154668000Y-94762000D03*
%TO.P,U3,31,IO19*%
%TO.N,/GPIO19*%
X154668000Y-93492000D03*
%TO.P,U3,32,NC*%
%TO.N,unconnected-(U3-NC-Pad32)*%
X154668000Y-92222000D03*
%TO.P,U3,33,IO21*%
%TO.N,/GPIO21_SDA*%
X154668000Y-90952000D03*
%TO.P,U3,34,RXD0/IO3*%
%TO.N,Net-(U3-RXD0{slash}IO3)*%
X154668000Y-89682000D03*
%TO.P,U3,35,TXD0/IO1*%
%TO.N,/RXD{slash}TXD*%
X154668000Y-88412000D03*
%TO.P,U3,36,IO22*%
%TO.N,/GPIO22_SCL*%
X154668000Y-87142000D03*
%TO.P,U3,37,IO23*%
%TO.N,/GPIO23*%
X154668000Y-85872000D03*
%TO.P,U3,38,GND*%
%TO.N,GND*%
X154668000Y-84602000D03*
D26*
%TO.P,U3,39,GND*%
X143018000Y-90922000D03*
D27*
X143018000Y-91622000D03*
D26*
X143018000Y-92322000D03*
D27*
X143018000Y-93022000D03*
D26*
X143018000Y-93722000D03*
D27*
X143718000Y-90922000D03*
X143718000Y-92322000D03*
X143718000Y-93722000D03*
X144393000Y-91622000D03*
X144393000Y-93022000D03*
D26*
X144418000Y-90922000D03*
X144418000Y-92322000D03*
D28*
X144418000Y-92322000D03*
D26*
X144418000Y-93722000D03*
D27*
X145118000Y-90922000D03*
X145118000Y-92322000D03*
X145118000Y-93722000D03*
D26*
X145818000Y-90922000D03*
D27*
X145818000Y-91622000D03*
D26*
X145818000Y-92322000D03*
D27*
X145818000Y-93022000D03*
D26*
X145818000Y-93722000D03*
%TD*%
D29*
%TO.N,GND*%
X150368000Y-117094000D03*
X145034000Y-105918000D03*
X151130000Y-130810000D03*
X144526000Y-131826000D03*
X136398000Y-131826000D03*
X156718000Y-84582000D03*
X140208000Y-101854000D03*
X139446000Y-126746000D03*
X131064000Y-132334000D03*
X131064000Y-120650000D03*
X153670000Y-117856000D03*
X141732000Y-125730000D03*
X140462000Y-109220000D03*
X153670000Y-119888000D03*
X135636000Y-111760000D03*
X150876000Y-133350000D03*
X140462000Y-84582000D03*
D30*
%TO.N,/EN*%
X137068000Y-105664000D03*
X137751735Y-102191735D03*
X137668000Y-110236000D03*
X141732000Y-123952000D03*
D29*
%TO.N,+3.3V*%
X131572000Y-97282000D03*
X151384000Y-111252000D03*
X149606000Y-114554000D03*
X128270000Y-88392000D03*
%TO.N,+5V*%
X143002000Y-129794000D03*
X151384000Y-109982000D03*
X135382000Y-130810000D03*
D30*
%TO.N,/IO0*%
X136906000Y-104648000D03*
X139700000Y-104648000D03*
%TO.N,/GPIO33*%
X127762000Y-91694000D03*
X134366000Y-97028000D03*
X126238000Y-95250000D03*
X135636000Y-94488000D03*
%TO.N,/GPIO39_IN*%
X133454669Y-110594669D03*
X141732000Y-91694000D03*
%TO.N,/GPIO22_SCL*%
X134573544Y-84224228D03*
X152400000Y-87122000D03*
%TO.N,/GPIO32*%
X121704000Y-101470527D03*
X132837639Y-91460514D03*
%TO.N,/GPIO34_IN*%
X121704000Y-99568000D03*
X133004000Y-90678000D03*
%TO.N,/GPIO35_IN*%
X130848003Y-110744000D03*
X139192000Y-92964000D03*
%TO.N,/GPIO27*%
X130048000Y-110744000D03*
X134112000Y-98552000D03*
%TO.N,/GPIO26_DAC2*%
X121704000Y-93980000D03*
X133604000Y-94996000D03*
%TO.N,/GPIO21_SDA*%
X133858000Y-84582000D03*
X151800000Y-91948000D03*
%TO.N,/GPIO36_IN*%
X140716000Y-90932000D03*
X132080000Y-110744000D03*
%TO.N,/GPIO14*%
X153700947Y-110774947D03*
X133858000Y-103886000D03*
%TO.N,/GPIO23*%
X163576000Y-85852000D03*
X166116000Y-114554000D03*
%TO.N,/GPIO19*%
X156972000Y-93980000D03*
X164045997Y-105918000D03*
%TO.N,/GPIO16_RX2*%
X156261735Y-98349735D03*
X163576000Y-104740000D03*
%TO.N,/GPIO13*%
X146558000Y-104048000D03*
X147574000Y-105826000D03*
%TO.N,/GPIO18*%
X164846000Y-105918000D03*
X158496000Y-94742000D03*
%TO.N,/GPIO12*%
X157480000Y-101854000D03*
X137131343Y-102855672D03*
%TO.N,/GPIO17_TX2*%
X157226000Y-97282000D03*
X161798000Y-97282000D03*
%TO.N,/GPIO15*%
X153162000Y-100584000D03*
X159004000Y-104140000D03*
%TO.N,/RXD{slash}TXD*%
X151130000Y-105248000D03*
X152400000Y-89408000D03*
%TD*%
D31*
%TO.N,Net-(U1-XO)*%
X155448000Y-114300000D02*
X155448000Y-115736000D01*
X156396000Y-113352000D02*
X155448000Y-114300000D01*
X154012000Y-115736000D02*
X155448000Y-115736000D01*
X151130000Y-118618000D02*
X154012000Y-115736000D01*
X160782000Y-113352000D02*
X156396000Y-113352000D01*
X151130000Y-120904000D02*
X151130000Y-118618000D01*
D32*
%TO.N,GND*%
X149440000Y-117348000D02*
X150114000Y-117348000D01*
X153836000Y-120054000D02*
X153670000Y-119888000D01*
X150114000Y-117348000D02*
X150368000Y-117094000D01*
X155448000Y-120054000D02*
X153836000Y-120054000D01*
X140970000Y-126912000D02*
X140970000Y-126492000D01*
X137212000Y-132640000D02*
X136398000Y-131826000D01*
X149728000Y-133350000D02*
X150876000Y-133350000D01*
X138176000Y-126824000D02*
X139368000Y-126824000D01*
X143712000Y-132861000D02*
X143712000Y-132640000D01*
X140970000Y-126492000D02*
X141732000Y-125730000D01*
X135636000Y-113510000D02*
X135636000Y-111760000D01*
X151130000Y-129794000D02*
X151130000Y-130810000D01*
X156698000Y-84602000D02*
X156718000Y-84582000D01*
X154090000Y-117436000D02*
X153670000Y-117856000D01*
X137168000Y-84602000D02*
X140442000Y-84602000D01*
X155448000Y-117436000D02*
X154090000Y-117436000D01*
X140442000Y-84602000D02*
X140462000Y-84582000D01*
X131064000Y-129800000D02*
X131064000Y-132334000D01*
X139368000Y-126824000D02*
X139446000Y-126746000D01*
X137212000Y-132861000D02*
X137212000Y-132640000D01*
X140208000Y-102362000D02*
X140208000Y-101854000D01*
X141732000Y-108634000D02*
X141048000Y-108634000D01*
X143712000Y-132640000D02*
X144526000Y-131826000D01*
X141048000Y-108634000D02*
X140462000Y-109220000D01*
X154668000Y-84602000D02*
X156698000Y-84602000D01*
X145034000Y-107100000D02*
X145034000Y-105918000D01*
X131064000Y-119888000D02*
X131064000Y-120650000D01*
D31*
%TO.N,Net-(U1-XI)*%
X155546000Y-121852000D02*
X155448000Y-121754000D01*
X151550000Y-121754000D02*
X151130000Y-122174000D01*
X155448000Y-121754000D02*
X151550000Y-121754000D01*
X160782000Y-121852000D02*
X155546000Y-121852000D01*
%TO.N,Net-(U1-~{RTS})*%
X145122000Y-127254000D02*
X146180000Y-127254000D01*
X143764000Y-128612000D02*
X145122000Y-127254000D01*
%TO.N,/EN*%
X137267000Y-105863000D02*
X137267000Y-107579000D01*
X146619000Y-90121000D02*
X146619000Y-94523000D01*
X146619000Y-94523000D02*
X145420470Y-94523000D01*
X137267000Y-107579000D02*
X136388000Y-108458000D01*
X143764000Y-125984000D02*
X141732000Y-123952000D01*
X143764000Y-126912000D02*
X143764000Y-125984000D01*
X145420470Y-94523000D02*
X137751735Y-102191735D01*
X143640000Y-87142000D02*
X146619000Y-90121000D01*
X136388000Y-108956000D02*
X136388000Y-108458000D01*
X137168000Y-87142000D02*
X143640000Y-87142000D01*
X137668000Y-110236000D02*
X136388000Y-108956000D01*
X137068000Y-105664000D02*
X137267000Y-105863000D01*
D32*
%TO.N,+3.3V*%
X134874000Y-108272000D02*
X134874000Y-110236000D01*
X134366000Y-115810000D02*
X135636000Y-115810000D01*
X147740000Y-117348000D02*
X143474000Y-117348000D01*
X135636000Y-115810000D02*
X132574000Y-115810000D01*
X156570000Y-101092000D02*
X156570000Y-106066000D01*
X133350000Y-117602000D02*
X134366000Y-116586000D01*
X134366000Y-116586000D02*
X134366000Y-115810000D01*
X132574000Y-115810000D02*
X132334000Y-115570000D01*
X133350000Y-106758000D02*
X136388000Y-106758000D01*
X143474000Y-117348000D02*
X141936000Y-115810000D01*
X137168000Y-85872000D02*
X130790000Y-85872000D01*
X134039000Y-109671000D02*
X134874000Y-108836000D01*
X168656000Y-90424000D02*
X167132000Y-90424000D01*
X133350000Y-121914000D02*
X133350000Y-117602000D01*
X124206000Y-90424000D02*
X129497000Y-95715000D01*
X129497000Y-95715000D02*
X129497000Y-99568000D01*
X156570000Y-100986000D02*
X156570000Y-101092000D01*
X131572000Y-97493000D02*
X129497000Y-99568000D01*
X130790000Y-85872000D02*
X128270000Y-88392000D01*
X156570000Y-106066000D02*
X151384000Y-111252000D01*
X149606000Y-114554000D02*
X147740000Y-116420000D01*
X134874000Y-108836000D02*
X134874000Y-108272000D01*
X131572000Y-97282000D02*
X131572000Y-97493000D01*
X131064000Y-124200000D02*
X133350000Y-121914000D01*
X129497000Y-109671000D02*
X134039000Y-109671000D01*
X147740000Y-116420000D02*
X147740000Y-117348000D01*
X129497000Y-99568000D02*
X129497000Y-109671000D01*
X132334000Y-112776000D02*
X132334000Y-115570000D01*
X167132000Y-90424000D02*
X156570000Y-100986000D01*
X136388000Y-106758000D02*
X134874000Y-108272000D01*
X134874000Y-110236000D02*
X132334000Y-112776000D01*
D31*
%TO.N,Net-(U1-V3)*%
X150368000Y-118618000D02*
X151892000Y-117094000D01*
X151130000Y-125984000D02*
X150155001Y-125984000D01*
X151892000Y-117094000D02*
X151892000Y-113538000D01*
X148844000Y-119126000D02*
X149352000Y-118618000D01*
X151892000Y-113538000D02*
X147154000Y-108800000D01*
X148844000Y-124672999D02*
X148844000Y-119126000D01*
X149352000Y-118618000D02*
X150368000Y-118618000D01*
X147154000Y-108800000D02*
X145034000Y-108800000D01*
X150155001Y-125984000D02*
X148844000Y-124672999D01*
D32*
%TO.N,+5V*%
X137088000Y-130810000D02*
X138012000Y-131734000D01*
X142912000Y-132861000D02*
X142912000Y-131734000D01*
X144852000Y-129794000D02*
X146180000Y-129794000D01*
X135382000Y-130810000D02*
X137088000Y-130810000D01*
X138012000Y-131734000D02*
X135636000Y-129358000D01*
X168656000Y-87884000D02*
X155869000Y-100671000D01*
X155869000Y-100671000D02*
X155869000Y-105497000D01*
X142912000Y-131734000D02*
X144852000Y-129794000D01*
X147828000Y-133350000D02*
X147828000Y-131442000D01*
X135636000Y-129358000D02*
X135636000Y-118110000D01*
X143002000Y-129794000D02*
X142912000Y-129884000D01*
X147828000Y-131442000D02*
X146180000Y-129794000D01*
X142912000Y-129884000D02*
X142912000Y-132861000D01*
X138012000Y-131734000D02*
X138012000Y-132861000D01*
X155869000Y-105497000D02*
X151384000Y-109982000D01*
D31*
%TO.N,/IO0*%
X153670000Y-104648000D02*
X154686000Y-103632000D01*
X132080000Y-108458000D02*
X130556000Y-106934000D01*
X130556000Y-105664000D02*
X131572000Y-104648000D01*
X154686000Y-103632000D02*
X154668000Y-103614000D01*
X143256000Y-109220000D02*
X137795000Y-114681000D01*
X154668000Y-103614000D02*
X154668000Y-101112000D01*
X133350000Y-108458000D02*
X132080000Y-108458000D01*
X130556000Y-106934000D02*
X130556000Y-105664000D01*
X143256000Y-106172000D02*
X143256000Y-109220000D01*
X140296000Y-125388000D02*
X140296000Y-124714000D01*
X137795000Y-125349000D02*
X138430000Y-125984000D01*
X138430000Y-125984000D02*
X139700000Y-125984000D01*
X131572000Y-104648000D02*
X136906000Y-104648000D01*
X137795000Y-114681000D02*
X137795000Y-125349000D01*
X139700000Y-104648000D02*
X141732000Y-104648000D01*
X139700000Y-125984000D02*
X140296000Y-125388000D01*
X139700000Y-104648000D02*
X153670000Y-104648000D01*
X141732000Y-104648000D02*
X143256000Y-106172000D01*
%TO.N,Net-(U1-~{DTR})*%
X140120000Y-123190000D02*
X138596000Y-124714000D01*
X141986000Y-123190000D02*
X140120000Y-123190000D01*
X144780000Y-125984000D02*
X141986000Y-123190000D01*
X146180000Y-125984000D02*
X144780000Y-125984000D01*
%TO.N,Net-(D1-A)*%
X131064000Y-116000000D02*
X130634000Y-115570000D01*
X131064000Y-118313000D02*
X131064000Y-116000000D01*
%TO.N,/D-*%
X140712000Y-134616000D02*
X140712000Y-132861000D01*
X154432000Y-134620000D02*
X153162000Y-135890000D01*
X139712000Y-133838000D02*
X140490000Y-134616000D01*
X154432000Y-125730000D02*
X154432000Y-134620000D01*
X140490000Y-134616000D02*
X140712000Y-134616000D01*
X152146000Y-123444000D02*
X151130000Y-123444000D01*
X139712000Y-132861000D02*
X139712000Y-133838000D01*
X141986000Y-135890000D02*
X140712000Y-134616000D01*
X154432000Y-125730000D02*
X152146000Y-123444000D01*
X153162000Y-135890000D02*
X141986000Y-135890000D01*
%TO.N,/D+*%
X141212000Y-134365000D02*
X141212000Y-132861000D01*
X151130000Y-124714000D02*
X152104999Y-124714000D01*
X153670000Y-134366000D02*
X152654000Y-135382000D01*
X142229000Y-135382000D02*
X141212000Y-134365000D01*
X140212000Y-131060000D02*
X140212000Y-132861000D01*
X140970000Y-130810000D02*
X140462000Y-130810000D01*
X141212000Y-131052000D02*
X140970000Y-130810000D01*
X140212000Y-132861000D02*
X140208000Y-132857000D01*
X140462000Y-130810000D02*
X140212000Y-131060000D01*
X152654000Y-135382000D02*
X142229000Y-135382000D01*
X152104999Y-124714000D02*
X153670000Y-126279001D01*
X141212000Y-132861000D02*
X141212000Y-131052000D01*
X153670000Y-126279001D02*
X153670000Y-134366000D01*
%TO.N,Net-(J1-CC2)*%
X142212000Y-129854000D02*
X142212000Y-132861000D01*
X140970000Y-128612000D02*
X142212000Y-129854000D01*
%TO.N,Net-(J1-CC1)*%
X139212000Y-129560000D02*
X138176000Y-128524000D01*
X139212000Y-132861000D02*
X139212000Y-129560000D01*
%TO.N,/GPIO33*%
X133096000Y-97028000D02*
X134366000Y-97028000D01*
X123817000Y-96655000D02*
X124833000Y-96655000D01*
X123729240Y-99195000D02*
X123055000Y-98520760D01*
X135636000Y-94488000D02*
X136894000Y-94488000D01*
X127448900Y-101854000D02*
X124789900Y-99195000D01*
X128270000Y-104140000D02*
X128270000Y-102108000D01*
X124789900Y-99195000D02*
X123729240Y-99195000D01*
X123055000Y-97417000D02*
X123817000Y-96655000D01*
X124833000Y-96655000D02*
X126238000Y-95250000D01*
X123055000Y-98520760D02*
X123055000Y-97417000D01*
X128270000Y-102108000D02*
X128016000Y-101854000D01*
X128016000Y-101854000D02*
X127448900Y-101854000D01*
X124206000Y-108204000D02*
X128270000Y-104140000D01*
X136894000Y-94488000D02*
X137168000Y-94762000D01*
X127762000Y-91694000D02*
X133096000Y-97028000D01*
%TO.N,/GPIO39_IN*%
X137700000Y-89682000D02*
X137168000Y-89682000D01*
X141732000Y-91694000D02*
X139712000Y-91694000D01*
X139712000Y-91694000D02*
X137700000Y-89682000D01*
X124206000Y-118364000D02*
X125685338Y-118364000D01*
X125685338Y-118364000D02*
X133454669Y-110594669D01*
%TO.N,/GPIO22_SCL*%
X152400000Y-87122000D02*
X152420000Y-87142000D01*
X152420000Y-87142000D02*
X154668000Y-87142000D01*
X123223900Y-83981000D02*
X134330316Y-83981000D01*
X121519000Y-92817000D02*
X121519000Y-85685900D01*
X124206000Y-95504000D02*
X121519000Y-92817000D01*
X134330316Y-83981000D02*
X134573544Y-84224228D01*
X121519000Y-85685900D02*
X123223900Y-83981000D01*
%TO.N,/GPIO32*%
X124206000Y-105664000D02*
X121704000Y-103162000D01*
X132837639Y-91460514D02*
X134869125Y-93492000D01*
X134869125Y-93492000D02*
X137168000Y-93492000D01*
X121704000Y-103162000D02*
X121704000Y-101470527D01*
%TO.N,/GPIO34_IN*%
X121666000Y-99606000D02*
X121704000Y-99568000D01*
X133004000Y-90678000D02*
X133278000Y-90952000D01*
X121666000Y-100584000D02*
X121666000Y-99606000D01*
X133278000Y-90952000D02*
X137168000Y-90952000D01*
X124206000Y-103124000D02*
X121666000Y-100584000D01*
%TO.N,/GPIO35_IN*%
X130848003Y-111213997D02*
X130848003Y-110744000D01*
X128778000Y-113284000D02*
X130848003Y-111213997D01*
X139192000Y-92964000D02*
X138450000Y-92222000D01*
X124206000Y-113284000D02*
X128778000Y-113284000D01*
X138450000Y-92222000D02*
X137168000Y-92222000D01*
%TO.N,/GPIO27*%
X134132000Y-98572000D02*
X137168000Y-98572000D01*
X134112000Y-98552000D02*
X134132000Y-98572000D01*
X124206000Y-110744000D02*
X130048000Y-110744000D01*
%TO.N,/GPIO26_DAC2*%
X124206000Y-100584000D02*
X121704000Y-98082000D01*
X121704000Y-98082000D02*
X121704000Y-93980000D01*
X133604000Y-94996000D02*
X135910000Y-97302000D01*
X135910000Y-97302000D02*
X137168000Y-97302000D01*
%TO.N,/GPIO21_SDA*%
X152796000Y-90952000D02*
X154668000Y-90952000D01*
X121920000Y-85852000D02*
X123190000Y-84582000D01*
X121920000Y-90678000D02*
X121920000Y-85852000D01*
X123190000Y-84582000D02*
X133858000Y-84582000D01*
X124206000Y-92964000D02*
X121920000Y-90678000D01*
X151800000Y-91948000D02*
X152796000Y-90952000D01*
%TO.N,/GPIO25_DAC1*%
X124577768Y-91575000D02*
X123729240Y-91575000D01*
X128946000Y-95943232D02*
X124577768Y-91575000D01*
X123055000Y-90900760D02*
X123055000Y-89947240D01*
X136218000Y-96032000D02*
X137168000Y-96032000D01*
X123729240Y-89273000D02*
X129459000Y-89273000D01*
X128096000Y-98894000D02*
X128946000Y-98044000D01*
X123729240Y-91575000D02*
X123055000Y-90900760D01*
X125056000Y-98894000D02*
X128096000Y-98894000D01*
X129459000Y-89273000D02*
X136218000Y-96032000D01*
X123055000Y-89947240D02*
X123729240Y-89273000D01*
X128946000Y-98044000D02*
X128946000Y-95943232D01*
X124206000Y-98044000D02*
X125056000Y-98894000D01*
%TO.N,/GPIO36_IN*%
X127000000Y-115824000D02*
X132080000Y-110744000D01*
X138196000Y-88412000D02*
X137168000Y-88412000D01*
X124206000Y-115824000D02*
X127000000Y-115824000D01*
X140716000Y-90932000D02*
X138196000Y-88412000D01*
%TO.N,/GPIO14*%
X133858000Y-103886000D02*
X133858000Y-102616000D01*
X158242000Y-106233894D02*
X153700947Y-110774947D01*
X133858000Y-102616000D02*
X136632000Y-99842000D01*
X159004000Y-103124000D02*
X158242000Y-103886000D01*
X168656000Y-103124000D02*
X159004000Y-103124000D01*
X136632000Y-99842000D02*
X137168000Y-99842000D01*
X158242000Y-103886000D02*
X158242000Y-106233894D01*
%TO.N,/GPIO23*%
X163556000Y-85872000D02*
X154668000Y-85872000D01*
X166116000Y-115824000D02*
X166116000Y-114554000D01*
X168656000Y-118364000D02*
X166116000Y-115824000D01*
X163576000Y-85852000D02*
X163556000Y-85872000D01*
%TO.N,/GPIO19*%
X156972000Y-93980000D02*
X156464000Y-93980000D01*
X155976000Y-93492000D02*
X154668000Y-93492000D01*
X156464000Y-93980000D02*
X155976000Y-93492000D01*
X168656000Y-115824000D02*
X164045997Y-111213997D01*
X164045997Y-111213997D02*
X164045997Y-105918000D01*
%TO.N,/GPIO16_RX2*%
X156261735Y-98349735D02*
X154890265Y-98349735D01*
X168656000Y-108204000D02*
X165192000Y-104740000D01*
X154890265Y-98349735D02*
X154668000Y-98572000D01*
X165192000Y-104740000D02*
X163576000Y-104740000D01*
%TO.N,/GPIO4*%
X168926000Y-85852000D02*
X167132000Y-85852000D01*
X155618000Y-99842000D02*
X154668000Y-99842000D01*
X169807000Y-91813000D02*
X169807000Y-86733000D01*
X166624000Y-88836000D02*
X155618000Y-99842000D01*
X169807000Y-86733000D02*
X168926000Y-85852000D01*
X166624000Y-86360000D02*
X166624000Y-88836000D01*
X168656000Y-92964000D02*
X169807000Y-91813000D01*
X167132000Y-85852000D02*
X166624000Y-86360000D01*
%TO.N,/GPIO13*%
X147574000Y-108433364D02*
X147574000Y-105826000D01*
X157480000Y-103124000D02*
X157480000Y-106147364D01*
X146558000Y-104048000D02*
X142656000Y-104048000D01*
X157949997Y-102654003D02*
X157480000Y-103124000D01*
X157480000Y-106147364D02*
X151674364Y-111953000D01*
X151674364Y-111953000D02*
X151093636Y-111953000D01*
X142656000Y-104048000D02*
X141478000Y-102870000D01*
X141478000Y-102870000D02*
X141478000Y-102362000D01*
X151093636Y-111953000D02*
X147574000Y-108433364D01*
X166585997Y-102654003D02*
X157949997Y-102654003D01*
X168656000Y-100584000D02*
X166585997Y-102654003D01*
%TO.N,/GPIO18*%
X164846000Y-109474000D02*
X164846000Y-105918000D01*
X158476000Y-94762000D02*
X154668000Y-94762000D01*
X168656000Y-113284000D02*
X164846000Y-109474000D01*
X158496000Y-94742000D02*
X158476000Y-94762000D01*
%TO.N,/GPIO12*%
X168656000Y-98044000D02*
X164846000Y-101854000D01*
X137131343Y-101148657D02*
X137168000Y-101112000D01*
X137131343Y-102855672D02*
X137131343Y-101148657D01*
X164846000Y-101854000D02*
X157480000Y-101854000D01*
%TO.N,/GPIO5*%
X168656000Y-95504000D02*
X170208000Y-93952000D01*
X158436000Y-96032000D02*
X154668000Y-96032000D01*
X166223000Y-88245000D02*
X158436000Y-96032000D01*
X170208000Y-86566900D02*
X169092100Y-85451000D01*
X169092100Y-85451000D02*
X166965900Y-85451000D01*
X166965900Y-85451000D02*
X166223000Y-86193900D01*
X170208000Y-93952000D02*
X170208000Y-86566900D01*
X166223000Y-86193900D02*
X166223000Y-88245000D01*
%TO.N,/GPIO17_TX2*%
X157226000Y-97282000D02*
X156718000Y-97282000D01*
X156698000Y-97302000D02*
X154668000Y-97302000D01*
X170341000Y-109059000D02*
X170341000Y-97282000D01*
X168656000Y-110744000D02*
X170341000Y-109059000D01*
X156718000Y-97282000D02*
X156698000Y-97302000D01*
X169833000Y-96774000D02*
X162306000Y-96774000D01*
X170341000Y-97282000D02*
X169833000Y-96774000D01*
X162306000Y-96774000D02*
X161798000Y-97282000D01*
%TO.N,/GPIO15*%
X150368000Y-101412000D02*
X150368000Y-102362000D01*
X153162000Y-100584000D02*
X151196000Y-100584000D01*
X151196000Y-100584000D02*
X150368000Y-101412000D01*
X167132000Y-104140000D02*
X159004000Y-104140000D01*
X168656000Y-105664000D02*
X167132000Y-104140000D01*
%TO.N,Net-(U3-RXD0{slash}IO3)*%
X145542000Y-95250000D02*
X147574000Y-95250000D01*
X138176000Y-108458000D02*
X137668000Y-107950000D01*
X137668000Y-103124000D02*
X145542000Y-95250000D01*
X138938000Y-108458000D02*
X138176000Y-108458000D01*
X153142000Y-89682000D02*
X154668000Y-89682000D01*
X137668000Y-107950000D02*
X137668000Y-103124000D01*
X147574000Y-95250000D02*
X153142000Y-89682000D01*
%TO.N,/TXD{slash}RXD*%
X153269000Y-126731968D02*
X153269000Y-126445101D01*
X151476968Y-128524000D02*
X153269000Y-126731968D01*
X149854000Y-123103032D02*
X150114032Y-122843000D01*
X153328100Y-136291000D02*
X136974215Y-136291000D01*
X150114032Y-122843000D02*
X152145968Y-122843000D01*
X136937000Y-112334364D02*
X139761000Y-109510364D01*
X139761000Y-108905000D02*
X141732000Y-106934000D01*
X136937000Y-116663008D02*
X136937000Y-112334364D01*
X139761000Y-109510364D02*
X139761000Y-108905000D01*
X149854000Y-125054968D02*
X149854000Y-123103032D01*
X134335000Y-117454992D02*
X134730992Y-117059000D01*
X151130000Y-128524000D02*
X151476968Y-128524000D01*
X152138899Y-125315000D02*
X150114032Y-125315000D01*
X154833000Y-125530032D02*
X154833000Y-134786100D01*
X141732000Y-106934000D02*
X139114000Y-106934000D01*
X154833000Y-134786100D02*
X153328100Y-136291000D01*
X134730992Y-117059000D02*
X136541008Y-117059000D01*
X150114032Y-125315000D02*
X149854000Y-125054968D01*
X139114000Y-106934000D02*
X138938000Y-106758000D01*
X136541008Y-117059000D02*
X136937000Y-116663008D01*
X152145968Y-122843000D02*
X154833000Y-125530032D01*
X153269000Y-126445101D02*
X152138899Y-125315000D01*
X134335000Y-133651785D02*
X134335000Y-117454992D01*
X136974215Y-136291000D02*
X134335000Y-133651785D01*
%TO.N,/RXD{slash}TXD*%
X148443000Y-125329000D02*
X148443000Y-120396000D01*
X139192000Y-116106058D02*
X139192000Y-114046000D01*
X143764000Y-109474000D02*
X143764000Y-106196636D01*
X144743636Y-105217000D02*
X151099000Y-105217000D01*
X143764000Y-106196636D02*
X144743636Y-105217000D01*
X148443000Y-120396000D02*
X148443000Y-119995000D01*
X150368000Y-127254000D02*
X148443000Y-125329000D01*
X141703942Y-118618000D02*
X139192000Y-116106058D01*
X139192000Y-114046000D02*
X143764000Y-109474000D01*
X148443000Y-119995000D02*
X147066000Y-118618000D01*
X147066000Y-118618000D02*
X141703942Y-118618000D01*
X151130000Y-127254000D02*
X150368000Y-127254000D01*
X151099000Y-105217000D02*
X151130000Y-105248000D01*
X152400000Y-89408000D02*
X153396000Y-88412000D01*
X153396000Y-88412000D02*
X154668000Y-88412000D01*
%TD*%
M02*
