%TF.GenerationSoftware,KiCad,Pcbnew,9.0.2+dfsg-1*%
%TF.CreationDate,2026-04-06T15:16:27+03:00*%
%TF.ProjectId,ESP32Klone,45535033-324b-46c6-9f6e-652e6b696361,1/1*%
%TF.SameCoordinates,Original*%
%TF.FileFunction,Soldermask,Top*%
%TF.FilePolarity,Negative*%
%FSLAX46Y46*%
G04 Gerber Fmt 4.6, Leading zero omitted, Abs format (unit mm)*
G04 Created by KiCad (PCBNEW 9.0.2+dfsg-1) date 2026-04-06 15:16:27*
%MOMM*%
%LPD*%
G01*
G04 APERTURE LIST*
G04 Aperture macros list*
%AMRoundRect*
0 Rectangle with rounded corners*
0 $1 Rounding radius*
0 $2 $3 $4 $5 $6 $7 $8 $9 X,Y pos of 4 corners*
0 Add a 4 corners polygon primitive as box body*
4,1,4,$2,$3,$4,$5,$6,$7,$8,$9,$2,$3,0*
0 Add four circle primitives for the rounded corners*
1,1,$1+$1,$2,$3*
1,1,$1+$1,$4,$5*
1,1,$1+$1,$6,$7*
1,1,$1+$1,$8,$9*
0 Add four rect primitives between the rounded corners*
20,1,$1+$1,$2,$3,$4,$5,0*
20,1,$1+$1,$4,$5,$6,$7,0*
20,1,$1+$1,$6,$7,$8,$9,0*
20,1,$1+$1,$8,$9,$2,$3,0*%
G04 Aperture macros list end*
%ADD10RoundRect,0.150000X0.825000X0.150000X-0.825000X0.150000X-0.825000X-0.150000X0.825000X-0.150000X0*%
%ADD11RoundRect,0.218750X0.256250X-0.218750X0.256250X0.218750X-0.256250X0.218750X-0.256250X-0.218750X0*%
%ADD12R,1.000000X1.000000*%
%ADD13R,0.700000X1.300000*%
%ADD14RoundRect,0.250000X-0.750000X2.000000X-0.750000X-2.000000X0.750000X-2.000000X0.750000X2.000000X0*%
%ADD15R,1.700000X1.700000*%
%ADD16C,1.700000*%
%ADD17RoundRect,0.375000X-0.625000X-0.375000X0.625000X-0.375000X0.625000X0.375000X-0.625000X0.375000X0*%
%ADD18RoundRect,0.500000X-0.500000X-1.400000X0.500000X-1.400000X0.500000X1.400000X-0.500000X1.400000X0*%
%ADD19RoundRect,0.250000X-0.550000X1.500000X-0.550000X-1.500000X0.550000X-1.500000X0.550000X1.500000X0*%
%ADD20C,0.650000*%
%ADD21R,0.600000X1.450000*%
%ADD22R,0.300000X1.450000*%
%ADD23O,1.000000X2.100000*%
%ADD24O,1.000000X1.600000*%
%ADD25R,1.500000X0.900000*%
%ADD26R,0.900000X1.500000*%
%ADD27C,0.600000*%
%ADD28R,3.800000X3.800000*%
G04 APERTURE END LIST*
D10*
%TO.C,U1*%
X151130000Y-129794000D03*
X151130000Y-128524000D03*
X151130000Y-127254000D03*
X151130000Y-125984000D03*
X151130000Y-124714000D03*
X151130000Y-123444000D03*
X151130000Y-122174000D03*
X151130000Y-120904000D03*
X146180000Y-120904000D03*
X146180000Y-122174000D03*
X146180000Y-123444000D03*
X146180000Y-124714000D03*
X146180000Y-125984000D03*
X146180000Y-127254000D03*
X146180000Y-128524000D03*
X146180000Y-129794000D03*
%TD*%
D11*
%TO.C,D1*%
X131064000Y-119888000D03*
X131064000Y-118313000D03*
%TD*%
D12*
%TO.C,C2*%
X155448000Y-120054000D03*
X155448000Y-121754000D03*
%TD*%
D13*
%TO.C,C6*%
X147828000Y-133350000D03*
X149728000Y-133350000D03*
%TD*%
D12*
%TO.C,R2*%
X138176000Y-128524000D03*
X138176000Y-126824000D03*
%TD*%
D14*
%TO.C,X1*%
X160782000Y-113352000D03*
X160782000Y-121852000D03*
%TD*%
D12*
%TO.C,C7*%
X138596000Y-124714000D03*
X140296000Y-124714000D03*
%TD*%
%TO.C,R3*%
X133350000Y-108458000D03*
X133350000Y-106758000D03*
%TD*%
D15*
%TO.C,J3*%
X168656000Y-87884000D03*
D16*
X168656000Y-90424000D03*
X168656000Y-92964000D03*
X168656000Y-95504000D03*
X168656000Y-98044000D03*
X168656000Y-100584000D03*
X168656000Y-103124000D03*
X168656000Y-105664000D03*
X168656000Y-108204000D03*
X168656000Y-110744000D03*
X168656000Y-113284000D03*
X168656000Y-115824000D03*
X168656000Y-118364000D03*
X168656000Y-120904000D03*
%TD*%
D12*
%TO.C,C5*%
X145034000Y-108800000D03*
X145034000Y-107100000D03*
%TD*%
D17*
%TO.C,U2*%
X135636000Y-113510000D03*
X135636000Y-115810000D03*
D18*
X141936000Y-115810000D03*
D17*
X135636000Y-118110000D03*
%TD*%
D12*
%TO.C,R6*%
X132334000Y-115570000D03*
X130634000Y-115570000D03*
%TD*%
%TO.C,C4*%
X147740000Y-117348000D03*
X149440000Y-117348000D03*
%TD*%
%TO.C,R7*%
X141732000Y-106934000D03*
X141732000Y-108634000D03*
%TD*%
D15*
%TO.C,J2*%
X124206000Y-87884000D03*
D16*
X124206000Y-90424000D03*
X124206000Y-92964000D03*
X124206000Y-95504000D03*
X124206000Y-98044000D03*
X124206000Y-100584000D03*
X124206000Y-103124000D03*
X124206000Y-105664000D03*
X124206000Y-108204000D03*
X124206000Y-110744000D03*
X124206000Y-113284000D03*
X124206000Y-115824000D03*
X124206000Y-118364000D03*
X124206000Y-120904000D03*
%TD*%
D12*
%TO.C,C1*%
X155448000Y-117436000D03*
X155448000Y-115736000D03*
%TD*%
%TO.C,C3*%
X143764000Y-128612000D03*
X143764000Y-126912000D03*
%TD*%
%TO.C,R4*%
X136388000Y-108458000D03*
X136388000Y-106758000D03*
%TD*%
%TO.C,R1*%
X140970000Y-128612000D03*
X140970000Y-126912000D03*
%TD*%
D19*
%TO.C,C8*%
X131064000Y-124200000D03*
X131064000Y-129800000D03*
%TD*%
D20*
%TO.C,J1*%
X137572000Y-134306000D03*
X143352000Y-134306000D03*
D21*
X137212000Y-132861000D03*
X138012000Y-132861000D03*
D22*
X139212000Y-132861000D03*
X140212000Y-132861000D03*
X140712000Y-132861000D03*
X141712000Y-132861000D03*
D21*
X142912000Y-132861000D03*
X143712000Y-132861000D03*
X143712000Y-132861000D03*
X142912000Y-132861000D03*
D22*
X142212000Y-132861000D03*
X141212000Y-132861000D03*
X139712000Y-132861000D03*
X138712000Y-132861000D03*
D21*
X138012000Y-132861000D03*
X137212000Y-132861000D03*
D23*
X136142000Y-133776000D03*
D24*
X136142000Y-137956000D03*
D23*
X144782000Y-133776000D03*
D24*
X144782000Y-137956000D03*
%TD*%
D12*
%TO.C,R5*%
X138938000Y-108458000D03*
X138938000Y-106758000D03*
%TD*%
D25*
%TO.C,U3*%
X137168000Y-84602000D03*
X137168000Y-85872000D03*
X137168000Y-87142000D03*
X137168000Y-88412000D03*
X137168000Y-89682000D03*
X137168000Y-90952000D03*
X137168000Y-92222000D03*
X137168000Y-93492000D03*
X137168000Y-94762000D03*
X137168000Y-96032000D03*
X137168000Y-97302000D03*
X137168000Y-98572000D03*
X137168000Y-99842000D03*
X137168000Y-101112000D03*
D26*
X140208000Y-102362000D03*
X141478000Y-102362000D03*
X142748000Y-102362000D03*
X144018000Y-102362000D03*
X145288000Y-102362000D03*
X146558000Y-102362000D03*
X147828000Y-102362000D03*
X149098000Y-102362000D03*
X150368000Y-102362000D03*
X151638000Y-102362000D03*
D25*
X154668000Y-101112000D03*
X154668000Y-99842000D03*
X154668000Y-98572000D03*
X154668000Y-97302000D03*
X154668000Y-96032000D03*
X154668000Y-94762000D03*
X154668000Y-93492000D03*
X154668000Y-92222000D03*
X154668000Y-90952000D03*
X154668000Y-89682000D03*
X154668000Y-88412000D03*
X154668000Y-87142000D03*
X154668000Y-85872000D03*
X154668000Y-84602000D03*
D27*
X143018000Y-91622000D03*
X143018000Y-93022000D03*
X143718000Y-90922000D03*
X143718000Y-92322000D03*
X143718000Y-93722000D03*
X144393000Y-91622000D03*
X144393000Y-93022000D03*
D28*
X144418000Y-92322000D03*
D27*
X145118000Y-90922000D03*
X145118000Y-92322000D03*
X145118000Y-93722000D03*
X145818000Y-91622000D03*
X145818000Y-93022000D03*
%TD*%
M02*
