M48
; DRILL file {KiCad 9.0.2+dfsg-1} date 2026-04-06T15:16:42+0300
; FORMAT={-:-/ absolute / metric / decimal}
; #@! TF.CreationDate,2026-04-06T15:16:42+03:00
; #@! TF.GenerationSoftware,Kicad,Pcbnew,9.0.2+dfsg-1
; #@! TF.FileFunction,Plated,1,2,PTH
FMAT,2
METRIC
; #@! TA.AperFunction,Plated,PTH,ComponentDrill
T1C0.200
; #@! TA.AperFunction,Plated,PTH,ViaDrill
T2C0.300
; #@! TA.AperFunction,Plated,PTH,ViaDrill
T3C0.400
; #@! TA.AperFunction,Plated,PTH,ComponentDrill
T4C0.600
; #@! TA.AperFunction,Plated,PTH,ComponentDrill
T5C1.000
%
G90
G05
T1
X143.018Y-91.622
X143.018Y-93.022
X143.718Y-90.922
X143.718Y-92.322
X143.718Y-93.722
X144.393Y-91.622
X144.393Y-93.022
X145.118Y-90.922
X145.118Y-92.322
X145.118Y-93.722
X145.818Y-91.622
X145.818Y-93.022
T2
X121.704Y-93.98
X121.704Y-99.568
X121.704Y-101.471
X126.238Y-95.25
X127.762Y-91.694
X130.048Y-110.744
X130.848Y-110.744
X132.08Y-110.744
X132.838Y-91.461
X133.004Y-90.678
X133.455Y-110.595
X133.604Y-94.996
X133.858Y-84.582
X133.858Y-103.886
X134.112Y-98.552
X134.366Y-97.028
X134.574Y-84.224
X135.636Y-94.488
X136.906Y-104.648
X137.068Y-105.664
X137.131Y-102.856
X137.668Y-110.236
X137.752Y-102.192
X139.192Y-92.964
X139.7Y-104.648
X140.716Y-90.932
X141.732Y-91.694
X141.732Y-123.952
X146.558Y-104.048
X147.574Y-105.826
X151.13Y-105.248
X151.8Y-91.948
X152.4Y-87.122
X152.4Y-89.408
X153.162Y-100.584
X153.701Y-110.775
X156.262Y-98.35
X156.972Y-93.98
X157.226Y-97.282
X157.48Y-101.854
X158.496Y-94.742
X159.004Y-104.14
X161.798Y-97.282
X163.576Y-85.852
X163.576Y-104.74
X164.046Y-105.918
X164.846Y-105.918
X166.116Y-114.554
T3
X128.27Y-88.392
X131.064Y-120.65
X131.064Y-132.334
X131.572Y-97.282
X135.382Y-130.81
X135.636Y-111.76
X136.398Y-131.826
X139.446Y-126.746
X140.208Y-101.854
X140.462Y-84.582
X140.462Y-109.22
X141.732Y-125.73
X143.002Y-129.794
X144.526Y-131.826
X145.034Y-105.918
X149.606Y-114.554
X150.368Y-117.094
X150.876Y-133.35
X151.13Y-130.81
X151.384Y-109.982
X151.384Y-111.252
X153.67Y-117.856
X153.67Y-119.888
X156.718Y-84.582
T5
X124.206Y-87.884
X124.206Y-90.424
X124.206Y-92.964
X124.206Y-95.504
X124.206Y-98.044
X124.206Y-100.584
X124.206Y-103.124
X124.206Y-105.664
X124.206Y-108.204
X124.206Y-110.744
X124.206Y-113.284
X124.206Y-115.824
X124.206Y-118.364
X124.206Y-120.904
X168.656Y-87.884
X168.656Y-90.424
X168.656Y-92.964
X168.656Y-95.504
X168.656Y-98.044
X168.656Y-100.584
X168.656Y-103.124
X168.656Y-105.664
X168.656Y-108.204
X168.656Y-110.744
X168.656Y-113.284
X168.656Y-115.824
X168.656Y-118.364
X168.656Y-120.904
T4
G00X136.142Y-133.226
M15
G01X136.142Y-134.326
M16
G05
G00X136.142Y-137.656
M15
G01X136.142Y-138.256
M16
G05
G00X144.782Y-133.226
M15
G01X144.782Y-134.326
M16
G05
G00X144.782Y-137.656
M15
G01X144.782Y-138.256
M16
G05
M30
